<svg width="277" height="391" viewBox="0 0 277 391" fill="none" xmlns="http://www.w3.org/2000/svg">
<path fill-rule="evenodd" clip-rule="evenodd" d="M127.559 6.18322C124.724 7.0844 119.184 9.40171 115.319 11.2041C105.784 15.4525 89.9365 19.8296 83.6232 19.8296C77.3098 19.8296 65.9716 26.2665 56.6949 35.1496C53.2162 38.4968 46.774 43.9038 42.5222 47.1223C35.307 52.6581 18.1709 70.1666 15.594 74.8012C14.9498 75.9599 13.0171 82.1394 11.3422 88.5763C8.63648 98.7467 8.37879 101.965 9.15185 113.166C9.79607 123.851 9.53838 127.069 7.73458 131.189C6.44615 134.15 5.54425 139.943 5.4154 144.707C5.28656 151.787 6.05962 154.748 10.0538 163.631C12.6306 169.425 14.8209 174.832 14.8209 175.862C14.8209 176.763 16.3671 180.754 18.2997 184.616C20.2324 188.478 21.9073 193.37 22.165 195.559C22.6804 200.451 26.1591 211.522 28.3495 214.87C29.3802 216.414 30.1533 224.139 30.6686 234.18C31.3129 252.204 33.3743 261.988 39.0434 273.446C52.3143 300.095 62.2352 318.376 66.6159 323.783C69.3216 327.259 71.5119 330.606 71.5119 331.379C71.5119 334.726 76.0214 341.034 84.2674 349.145C89.0346 353.908 94.7037 360.345 96.7652 363.563C98.8266 366.653 102.563 370.773 105.14 372.575C107.717 374.378 111.969 377.467 114.545 379.527C124.982 387.638 153.585 386.608 173.684 377.338C186.826 371.159 198.165 358.8 220.326 326.229C231.535 309.75 235.143 302.541 242.358 281.814C245.708 271.901 247.254 265.464 247.254 260.186C247.383 254.521 247.769 252.848 249.315 252.848C251.763 252.848 253.438 254.135 255.242 257.353C258.592 263.533 264.519 258.255 263.102 250.402C262.715 248.728 263.617 244.995 264.905 242.034C266.323 238.815 267.353 233.794 267.353 229.031C267.353 224.782 268.255 216.414 269.415 210.364C271.734 197.747 272.121 170.197 270.059 165.047C269.157 162.601 269.157 159.383 269.93 154.748C271.219 148.311 269.93 138.398 266.194 125.911C265.55 123.722 264.648 118.186 264.132 113.681C263.488 107.501 261.813 102.738 257.432 94.4983C254.211 88.5763 250.475 79.5646 249.058 74.5438C245.321 60.6399 244.548 59.3525 237.075 54.5892C229.474 49.8258 222.258 43.3889 210.147 30.3862C197.907 17.2548 194.815 15.7099 169.433 10.3029C164.794 9.27297 158.739 7.85682 156.033 7.21312C146.885 4.76708 133.099 4.25213 127.559 6.18322ZM162.346 11.4615C167.371 12.6202 174.329 14.4225 177.936 15.4524C181.544 16.4824 185.538 17.2548 186.955 17.2548C191.465 17.3835 198.68 22.9193 210.791 35.7933C217.491 42.7452 227.283 51.6282 232.695 55.3616L242.487 62.1848L245.321 73.2564C246.996 79.3071 249.831 87.0315 251.635 90.3787C259.365 104.54 260.782 108.145 260.911 114.067C260.911 117.285 262.071 123.722 263.488 128.228C264.905 132.605 266.451 140.716 266.838 145.994L267.74 155.649L261.942 150.114C254.469 142.904 251.635 143.033 248.413 150.757C246.996 154.233 245.45 158.61 244.935 160.542C244.419 162.601 241.714 166.721 239.008 169.682C234.241 174.832 233.854 175.862 233.854 182.556C233.854 186.547 233.339 189.765 232.695 189.765C232.05 189.765 229.861 190.151 227.671 190.538L227.67 190.538C226.241 190.823 225.34 191.003 224.675 190.688C223.54 190.149 223.09 188.169 221.872 182.813C219.424 171.871 214.657 164.018 204.607 153.847C200.097 149.341 195.845 144.578 195.201 143.291C194.428 142.003 193.913 137.369 193.913 132.863C193.913 124.237 189.274 109.432 183.477 99.7767C179.482 93.211 170.077 85.4866 166.083 85.4866C162.217 85.4866 162.217 86.1303 166.212 91.4086C168.015 93.7259 169.433 95.9145 169.433 96.172C169.433 96.5582 166.856 96.0432 163.764 95.1421C160.671 94.2409 156.291 93.2109 153.843 92.9535C149.72 92.5672 149.462 92.8247 149.462 96.3007C149.462 99.2617 148.689 100.292 144.695 101.836C140.185 103.639 139.541 103.51 123.436 97.2019C105.913 90.3787 92.3845 86.259 83.3655 84.9716C77.8252 84.1992 74.3464 85.2291 69.9658 89.0913C68.6773 90.1212 65.0697 91.0224 61.8487 91.1511C56.1796 91.2799 56.0507 91.1511 58.7564 89.3488C60.3026 88.3189 63.3948 86.774 65.4563 86.0015C67.6466 85.2291 69.7081 83.9417 69.9658 83.1693C71.2542 79.1784 62.364 83.298 46.1298 94.1121C28.6072 105.699 25.2572 108.531 24.3553 112.264C23.84 114.195 22.8092 116.899 21.9073 118.315C19.5881 122.177 13.919 142.904 12.8883 151.53C12.1152 157.066 11.5999 158.739 10.4403 157.581C8.24995 155.392 8.89416 137.369 11.3422 129.258C13.2748 123.207 13.4037 120.89 12.1152 113.423C10.5691 104.283 11.2133 100.292 16.2382 82.9118C18.2997 75.8312 19.8458 73.3851 26.4168 66.8194C30.6686 62.6998 34.1474 58.8376 34.1474 58.3226C34.1474 57.8077 37.2396 55.1041 40.8472 52.4006C44.5837 49.6971 51.2835 44.29 55.6642 40.2991C68.162 29.0988 76.2791 24.2067 84.3962 23.1768C94.9613 21.7607 107.201 18.156 118.668 12.8777C128.461 8.37179 129.234 8.24305 141.087 8.75801C147.787 9.01548 157.45 10.3029 162.346 11.4615ZM97.4094 91.0224C101.403 92.181 111.969 96.0432 120.988 99.6479C129.878 103.124 138.51 106.085 140.185 106.085C141.731 106.085 145.597 104.926 148.689 103.51C153.198 101.45 154.1 100.42 153.585 98.3605C152.812 95.2708 154.1 95.142 162.475 97.7168C171.623 100.42 173.684 100.292 172.525 96.6869C172.138 95.142 170.85 92.8247 169.69 91.5373C165.825 87.1602 170.335 89.4775 174.844 94.1121C183.477 103.124 189.79 118.959 191.207 134.922L192.238 146.38L199.711 153.075L207.184 159.64L202.674 159.125C199.582 158.739 196.361 159.64 192.496 161.7C187.213 164.532 185.667 164.661 166.985 164.275C156.033 164.146 143.793 164.661 139.928 165.434C135.933 166.206 128.074 166.979 122.405 166.979C111.711 167.236 102.692 170.326 90.5807 177.793C82.5924 182.685 84.7827 188.221 93.9306 186.547C96.1209 186.032 99.7285 186.547 102.177 187.577C108.103 190.023 111.711 188.993 118.153 183.328C124.982 177.406 128.332 175.604 132.455 175.604C134.258 175.604 138.639 174.059 142.376 172.128C150.493 168.008 162.99 167.622 167.242 171.356C172.525 176.248 176.39 187.191 173.427 189.122C172.654 189.508 167.629 187.448 162.089 184.487C156.93 181.778 154.42 180.459 151.752 179.922C149.222 179.412 146.55 179.605 141.345 179.981C130.393 180.754 124.724 182.813 119.57 187.577C116.092 190.667 115.834 193.37 118.668 195.43C120.343 196.717 120.472 197.49 119.055 200.451C117.638 203.54 117.767 204.184 119.957 205.858C125.239 209.849 135.805 211.394 143.149 209.205C145.21 208.561 150.106 207.403 153.971 206.501C157.837 205.6 162.733 203.54 164.665 201.867C166.727 200.193 169.175 198.777 170.206 198.777C173.04 198.777 177.163 190.924 177.163 185.517C177.163 180.367 174.586 174.188 170.721 169.811C169.899 168.898 169.369 168.309 169.49 167.929C169.712 167.236 172.1 167.236 178.838 167.236C187.213 167.107 190.563 166.592 194.815 164.275C197.778 162.73 201.128 161.443 202.288 161.443C205.251 161.443 210.405 167.494 214.657 175.99C218.908 184.358 220.583 190.667 222.387 205.987C223.547 214.998 223.289 217.831 221.099 226.842C219.037 234.695 218.393 241.132 218.393 253.749C218.522 268.94 220.583 286.449 222.774 288.508C223.289 289.023 226.124 288.508 229.087 287.478C233.339 285.934 235.4 284.003 238.879 278.467C241.198 274.605 242.744 272.673 242.229 274.09C241.8 275.032 240.745 277.911 239.479 281.363L239.478 281.365L239.478 281.366C238.841 283.102 238.151 284.983 237.462 286.835C235.4 292.371 231.406 301.382 228.572 306.789C221.614 320.178 202.545 346.441 190.434 359.572C182.317 368.455 178.709 371.159 171.365 374.635C160.8 379.527 150.364 381.587 136.449 381.716C124.853 381.844 120.601 380.557 114.288 375.021C111.84 372.833 108.49 370.515 106.944 369.743C102.821 367.941 95.4767 357.513 97.5382 356.74C98.8266 356.354 98.4401 354.809 96.5075 350.947L93.6729 345.669L97.2805 348.243C101.919 351.719 105.526 351.076 106.042 346.699C106.3 343.995 105.269 342.45 101.275 339.103C96.2498 335.241 94.5748 332.666 97.0228 332.666C99.0843 332.666 114.159 347.213 112.999 347.986C111.84 348.758 108.876 353.779 108.876 355.067C108.876 356.998 112.226 355.453 116.736 351.333C123.307 345.411 126.657 344.767 134.001 347.986C141.216 351.204 143.149 351.333 144.179 348.758C145.468 345.411 143.793 343.609 137.995 341.806C134.13 340.648 132.068 339.36 131.553 337.429C130.78 334.597 131.81 329.061 133.357 326.873C134.903 324.684 135.805 319.792 134.645 319.148C134.13 318.762 132.068 320.564 130.264 323.011C128.332 325.457 125.884 327.516 124.853 327.516C123.822 327.516 120.215 328.933 116.865 330.735C109.134 334.855 105.011 334.855 100.373 330.477L96.6363 327.001L102.434 325.328C105.655 324.298 109.263 323.783 110.551 324.169C113.128 324.813 123.693 321.594 127.559 318.891C128.976 317.99 131.939 317.217 134.258 317.217C136.707 317.217 140.701 315.93 143.406 314.256C145.983 312.583 150.106 310.523 152.425 309.622C156.806 307.819 157.837 305.116 154.616 303.828C151.91 302.798 145.081 304.343 139.799 307.176C136.32 308.978 133.743 309.364 128.847 308.72C123.436 308.077 121.761 308.463 118.926 310.652C116.349 312.711 113.772 313.355 107.974 313.355C101.79 313.355 99.4708 313.999 95.8632 316.702C90.5807 320.693 86.9731 322.753 86.9731 321.723C86.9731 321.337 89.1634 318.633 91.9979 315.544C95.8632 311.424 97.4094 308.206 98.8266 301.769C100.759 292.757 102.821 291.341 103.465 298.421C103.98 304.343 106.557 306.532 110.809 304.601C113.515 303.313 113.772 302.67 112.742 299.966C111.196 295.718 106.3 290.182 104.109 290.182C103.207 290.182 101.146 287.35 99.4709 284.003L96.3786 277.694L100.373 275.12C107.33 270.485 115.447 266.751 117.38 267.524C119.828 268.425 119.699 272.931 117.251 273.961C116.22 274.347 113.644 274.347 111.582 273.961C107.073 273.06 105.526 274.991 108.619 277.694C110.551 279.497 111.711 279.497 118.282 277.952C122.534 276.922 126.914 275.248 128.203 274.09C134.001 268.811 132.068 259.671 123.178 250.402C120.343 247.441 116.349 242.162 114.417 238.558C111.969 234.18 109.521 231.734 106.815 230.704C103.465 229.546 102.563 228.387 101.919 224.396C101.403 221.564 99.4709 217.444 97.1517 214.87C93.6729 211.007 92.3845 210.364 87.3596 210.364C84.2674 210.364 80.5309 211.007 79.2425 211.651C77.0522 212.81 76.6656 212.295 76.0214 207.145C75.506 204.055 73.4445 198.906 71.5119 195.687C68.5485 191.182 66.487 189.508 60.6891 187.319C56.6949 185.903 52.0566 183.715 50.3816 182.685C48.7067 181.526 44.8414 180.239 41.7491 179.724C37.8839 178.951 36.2089 178.05 36.3377 176.891C36.4666 175.862 37.4973 169.167 38.6569 162.086C44.5837 124.623 44.9702 116.641 41.4915 112.779C38.1415 109.175 39.6877 103.124 44.4549 99.6479C49.6086 96.0432 60.6891 92.8247 65.0697 93.8546C67.7754 94.4983 69.4504 93.8546 72.285 91.2799C75.506 88.4476 76.9233 88.0614 83.1078 88.4476C86.9731 88.7051 93.4152 89.8637 97.4094 91.0224ZM36.982 106.857C36.5954 108.788 37.4973 112.393 39.0434 115.483C42.0068 121.405 41.878 122.435 35.5647 162.601C34.1474 171.356 33.3743 179.338 33.7609 180.239C34.1474 181.397 33.5032 182.041 32.0859 182.041C30.6686 182.041 28.4783 182.427 27.061 182.813C24.8707 183.328 23.5823 181.655 18.9439 172.514L13.4037 161.571L14.9498 153.461C17.1401 142.003 21.9073 125.396 24.3553 120.89C25.5149 118.701 26.4168 115.998 26.4168 114.71C26.4168 112.651 34.9205 103.51 36.8531 103.51C37.2396 103.51 37.3685 105.055 36.982 106.857ZM261.169 154.748C269.157 163.503 270.961 183.2 266.194 211.265C264.905 219.247 264.132 227.1 264.39 228.773C265.292 233.537 262.586 241.776 258.85 245.252L255.5 248.342L256.015 245.252C256.144 243.578 255.757 241.905 254.856 241.647C252.665 240.875 251.377 246.153 253.309 248.47C255.629 251.303 253.696 252.204 250.217 249.887C247.769 248.342 246.867 246.282 246.223 241.004C245.708 237.27 244.033 229.288 242.229 223.238C240.296 216.157 238.879 207.016 238.364 197.232C237.591 181.011 238.106 179.08 246.223 166.592C247.898 164.146 249.573 160.027 249.96 157.581C251.377 149.341 255.242 148.311 261.169 154.748ZM138.768 170.455C136.449 171.871 133.228 173.029 131.424 173.029C126.914 173.029 122.791 174.832 118.411 178.951C111.196 185.646 108.232 186.676 102.95 184.23C99.8574 182.685 96.894 182.299 93.4152 182.813C90.5807 183.328 88.2615 183.2 88.2615 182.813C88.2615 182.299 93.9306 179.209 100.888 175.862C112.742 170.197 114.03 169.94 124.595 169.811C130.78 169.811 136.191 169.296 136.707 168.781C137.222 168.266 138.897 167.88 140.314 167.88C142.504 167.88 142.247 168.395 138.768 170.455ZM36.4666 187.448C48.3201 186.804 62.4929 189.508 62.4929 192.469C62.4929 193.37 61.591 193.499 60.3026 192.984C59.0141 192.598 55.2777 191.825 51.9278 191.439C46.6452 190.795 45.0991 191.182 39.8165 194.786C36.4666 196.975 33.2455 198.777 32.6013 198.777C32.0859 198.777 31.5705 196.717 31.5705 194.143C31.5705 190.538 31.184 189.637 29.3802 190.023C29.1895 190.061 29.0139 190.108 28.8525 190.167L28.6166 187.779C30.3963 187.798 32.8673 187.657 36.4666 187.448ZM44.4549 183.328C45.8721 184.23 44.5837 184.616 39.9453 184.616C35.307 184.616 34.0186 184.23 35.4358 183.328C36.4666 182.685 38.5281 182.041 39.9453 182.041C41.3626 182.041 43.4241 182.685 44.4549 183.328ZM161.058 187.448C162.233 188.023 163.365 188.598 164.426 189.155L162.602 190.492C159.486 188.38 155.083 186.782 149.72 185.903C142.891 184.873 137.737 186.032 125.368 191.439C122.663 192.726 120.343 193.113 119.828 192.34C118.797 190.667 130.393 184.23 136.449 183.2C147.014 181.526 149.977 182.041 161.058 187.448ZM151.395 191.053C151.395 194.271 148.431 200.322 145.854 202.511C144.308 203.669 143.02 202.897 138.639 198.005C132.068 190.409 133.099 188.993 145.983 188.607C150.622 188.478 151.395 188.864 151.395 191.053ZM161.316 200.579C160.929 201.609 151.137 205.085 148.56 205.214C148.045 205.214 149.075 203.154 150.75 200.579C152.554 198.005 153.971 194.657 153.971 193.113C154.1 190.795 154.487 190.924 157.837 194.915C159.898 197.361 161.444 199.936 161.316 200.579ZM235.658 203.412C236.173 209.463 237.719 218.088 239.137 222.594C242.744 234.438 245.192 250.144 244.033 254.006C243.517 255.809 242.358 260.701 241.585 264.692C240.039 272.802 234.37 281.685 229.216 284.003C224.964 285.934 224.191 284.775 222.387 272.545C220.197 257.611 220.583 242.548 223.804 228.902C226.252 218.345 226.381 215.256 225.351 205.214L224.191 193.756L228.056 193.241C228.727 193.158 229.44 193.06 230.121 192.967L230.123 192.967C231.535 192.773 232.818 192.598 233.339 192.598C234.241 192.469 235.143 196.46 235.658 203.412ZM57.3392 195.43C63.5236 197.104 64.5544 197.104 65.8428 195.43C67.1312 193.885 67.7755 194.529 69.9658 199.035C74.6041 209.076 77.181 228.387 76.7945 248.985C76.4079 270.742 77.8252 276.664 84.0097 278.081C94.9531 280.496 94.9628 280.526 96.5749 285.487L96.6363 285.676C98.1824 289.925 98.1824 291.856 96.2498 299.709C94.5748 307.047 93.0287 310.137 88.648 315.157C82.9789 321.466 81.5617 326.229 85.1693 326.229C86.2 326.229 90.5807 323.912 94.7037 321.079C101.403 316.574 103.207 315.93 109.778 315.93C114.674 315.93 118.411 315.157 120.215 313.87C122.018 312.583 126.528 311.681 131.424 311.424C136.32 311.166 140.829 310.265 142.504 308.978C144.179 307.819 146.37 306.918 147.529 306.918C148.56 306.918 146.756 308.72 143.406 310.78C139.928 312.969 135.547 314.642 133.485 314.642C131.424 314.642 126.657 316.059 122.791 317.861C119.055 319.663 113.901 321.079 111.453 321.079C109.005 321.079 104.109 321.852 100.502 322.753L94.0594 324.427L93.6729 330.349C93.2864 336.013 93.6729 336.528 98.569 340.519C101.403 342.836 103.723 345.411 103.723 346.441C103.723 348.758 102.048 348.501 98.4401 345.669C94.3171 342.579 89.5499 341.034 89.5499 342.965C89.5499 343.866 90.5807 346.055 91.8691 347.857C95.9921 353.779 96.2498 354.552 94.1883 353.779C93.1575 353.393 88.2615 347.728 83.2366 341.163L74.2176 329.319L74.9907 318.376C75.6349 308.205 75.3772 306.532 70.8677 293.143C68.2908 285.161 66.487 278.209 66.8736 277.566C67.7755 276.021 62.1064 267.91 58.1122 265.335C55.1488 263.276 54.8911 262.374 54.5046 251.946L54.1181 240.617H50.2528C41.2338 240.489 38.2704 237.27 43.1664 232.893C45.6021 230.716 45.7419 230.832 49.5503 234.003L49.6086 234.052C51.9278 235.854 54.5046 237.399 55.5354 237.399C58.3699 237.399 66.6159 232.893 69.4504 229.803C72.1561 226.842 71.3831 223.238 68.0331 223.238C66.2293 223.238 66.3582 222.594 69.3216 220.019C71.2542 218.217 72.8003 216.028 72.8003 215.385C72.8003 214.612 70.8677 212.037 68.4197 209.591C63.1371 204.313 58.2411 203.927 48.1913 207.789L41.4915 210.235L37.755 207.145C35.6935 205.343 32.9878 203.927 31.8282 203.927C30.6686 203.798 31.8282 202.768 34.4051 201.481C37.1108 200.065 40.8472 197.876 42.7799 196.331C47.1606 193.113 48.3201 193.113 57.3392 195.43ZM132.068 194.915C132.068 195.559 134.387 198.52 137.222 201.352L142.376 206.501L139.026 207.274C135.16 208.304 122.791 205.214 122.147 203.154C121.503 201.223 127.945 193.628 130.264 193.628C131.295 193.628 132.068 194.143 132.068 194.915ZM34.9205 209.205C36.0801 210.492 37.8839 211.651 38.7858 211.651C40.0742 211.651 40.3319 212.81 39.6877 215.642C39.0434 218.732 39.6877 220.277 42.651 223.366L46.3875 227.357L57.3392 226.456L68.2908 225.684L64.039 229.675C59.143 234.18 53.7316 234.695 50.2528 230.962C48.9644 229.546 47.0317 228.387 46.001 228.387C42.9087 228.387 38.0127 233.665 38.0127 236.884C38.0127 240.36 43.553 243.836 49.0932 243.836H52.572L51.7989 252.461C51.0259 262.503 52.1854 266.623 56.4373 268.168C60.0449 269.584 63.7813 274.862 63.7813 278.595C63.7813 280.14 65.8428 287.478 68.2908 294.945C72.6715 308.077 73.5734 315.544 71.6407 322.367C70.8677 325.328 70.4812 325.07 65.9716 317.861C63.2659 313.613 55.6642 299.065 48.9644 285.676C35.1782 257.997 32.6013 248.985 32.9878 229.031C33.2455 219.375 32.859 216.543 30.5398 212.037C28.9937 209.076 27.7053 206.373 27.7053 205.987C27.7053 204.699 32.859 207.016 34.9205 209.205ZM64.9409 210.75C66.6159 212.938 63.9102 215.899 58.2411 217.959C54.1181 219.504 52.8297 219.118 50.897 215.513C49.7374 213.453 50.124 212.681 53.0873 211.136C57.5968 208.69 63.0083 208.561 64.9409 210.75ZM47.5471 214.741C47.1606 215.642 48.3201 217.702 50.1239 219.118C52.7008 221.178 54.3758 221.435 57.7257 220.663C64.4255 219.118 66.2293 217.959 67.1312 215.256C67.6466 213.453 68.2908 213.067 69.3216 214.097C69.3742 214.15 69.4254 214.2 69.4749 214.249C70.8773 215.638 70.9015 215.662 64.5544 219.89C54.6335 226.585 37.3685 221.821 44.7125 214.483C46.774 212.424 48.449 212.552 47.5471 214.741ZM94.0594 216.414C97.2805 220.019 97.667 220.663 99.0843 227.486C99.7285 230.061 101.275 231.734 104.238 232.893C107.33 234.18 109.907 236.884 112.484 241.519C114.674 245.252 118.282 250.015 120.472 252.204C128.074 259.285 130.135 266.623 126.013 271.129C123.049 274.476 122.018 274.09 121.503 269.198C121.245 265.979 120.472 264.949 118.153 264.692C114.417 264.177 106.042 267.395 98.8266 272.287C92.2556 276.664 90.323 276.922 84.7827 273.446C80.5343 271.002 80.5309 270.743 80.4024 260.982L80.4021 260.958C80.4021 255.422 80.2732 242.677 80.1444 232.507C80.0155 221.307 80.4021 213.968 81.1751 213.711C85.2981 211.909 90.9672 213.196 94.0594 216.414ZM128.847 335.884C128.847 340.905 128.589 341.678 126.141 341.678C124.724 341.678 121.632 342.321 119.313 343.094C115.705 344.381 114.803 344.253 111.969 341.549C108.361 338.073 107.974 336.528 111.196 336.528C112.355 336.528 115.705 335.112 118.54 333.31C121.374 331.636 124.853 330.091 126.27 330.091C128.461 330.091 128.847 330.992 128.847 335.884Z" fill="black" stroke="black" stroke-width="3" stroke-linejoin="round"/>
</svg>
