<svg width="512" height="512" viewBox="0 0 512 512" fill="none" xmlns="http://www.w3.org/2000/svg">
<path d="M242.303 17.487C238.722 18.6253 231.724 21.5525 226.842 23.8291C214.798 29.1955 194.78 34.7245 186.805 34.7245C178.831 34.7245 164.509 42.8554 152.791 54.0761C148.396 58.3041 140.259 65.1341 134.888 69.1996C125.774 76.1921 104.129 98.3082 100.874 104.162C100.06 105.626 97.6187 113.432 95.503 121.563C92.0852 134.409 91.7597 138.475 92.7362 152.623C93.55 166.12 93.2245 170.185 90.946 175.389C89.3185 179.129 88.1792 186.447 88.0165 192.464C87.8537 201.408 88.8302 205.148 93.8755 216.369C97.1304 223.687 99.8972 230.517 99.8972 231.818C99.8972 232.956 101.85 237.997 104.291 242.876C106.733 247.754 108.848 253.934 109.174 256.698C109.825 262.878 114.219 276.863 116.986 281.091C118.288 283.042 119.264 292.799 119.915 305.484C120.729 328.25 123.333 340.609 130.494 355.082C147.257 388.744 159.789 411.836 165.322 418.666C168.74 423.056 171.507 427.284 171.507 428.26C171.507 432.488 177.203 440.456 187.619 450.701C193.641 456.718 200.802 464.849 203.406 468.915C206.01 472.817 210.729 478.021 213.984 480.298C217.239 482.575 222.61 486.477 225.865 489.079C239.048 499.324 275.178 498.023 300.567 486.315C317.167 478.509 331.489 462.898 359.482 421.755C373.641 400.94 378.198 391.834 387.312 365.652C391.544 353.131 393.497 345 393.497 338.332C393.659 331.177 394.148 329.063 396.101 329.063C399.193 329.063 401.309 330.689 403.587 334.755C407.819 342.56 415.305 335.893 413.515 325.973C413.027 323.859 414.166 319.143 415.793 315.403C417.583 311.338 418.885 304.996 418.885 298.979C418.885 293.612 420.025 283.042 421.489 275.399C424.419 259.463 424.907 224.662 422.303 218.158C421.164 215.068 421.164 211.002 422.14 205.148C423.768 197.017 422.14 184.496 417.421 168.722C416.607 165.957 415.468 158.965 414.817 153.273C414.003 145.467 411.887 139.451 406.354 129.043C402.285 121.563 397.565 110.179 395.775 103.837C391.055 86.2744 390.079 84.6483 380.639 78.6314C371.037 72.6145 361.923 64.4836 346.625 48.0592C331.164 31.4722 327.258 29.5208 295.196 22.6908C289.337 21.3898 281.688 19.601 278.27 18.788C266.715 15.6982 249.301 15.0477 242.303 17.487ZM286.245 24.1544C292.592 25.6179 301.381 27.8946 305.938 29.1955C310.495 30.4965 315.54 31.4722 317.33 31.4722C323.026 31.6348 332.14 38.6273 347.439 54.8892C355.902 63.6705 368.271 74.8912 375.106 79.6071L387.475 88.2259L391.055 102.211C393.171 109.854 396.752 119.611 399.03 123.839C408.795 141.727 410.585 146.28 410.748 153.761C410.748 157.826 412.213 165.957 414.003 171.649C415.793 177.178 417.746 187.423 418.234 194.09L419.374 206.287L412.05 199.294C402.611 190.187 399.03 190.35 394.961 200.107C393.171 204.498 391.218 210.027 390.567 212.466C389.916 215.068 386.498 220.272 383.081 224.012C377.059 230.517 376.571 231.818 376.571 240.274C376.571 245.315 375.92 249.38 375.106 249.38C374.292 249.38 371.525 249.868 368.759 250.356C363.876 251.332 363.876 251.332 361.435 240.599C358.343 226.776 352.321 216.857 339.627 204.01C333.93 198.318 328.56 192.301 327.746 190.675C326.769 189.049 326.118 183.195 326.118 177.503C326.118 166.608 320.26 147.907 312.936 135.71C307.891 127.417 296.01 117.66 290.965 117.66C286.082 117.66 286.082 118.473 291.127 125.14C293.406 128.067 295.196 130.832 295.196 131.157C295.196 131.645 291.941 130.994 288.035 129.856C284.129 128.718 278.596 127.417 275.503 127.092C270.296 126.604 269.97 126.929 269.97 131.32C269.97 135.06 268.994 136.361 263.948 138.312C258.252 140.589 257.438 140.426 237.095 132.458C214.961 123.839 197.872 118.635 186.48 117.009C179.482 116.034 175.087 117.334 169.554 122.213C167.926 123.514 163.369 124.652 159.301 124.815C152.14 124.978 151.977 124.815 155.395 122.538C157.348 121.237 161.254 119.286 163.858 118.31C166.624 117.334 169.228 115.708 169.554 114.733C171.181 109.691 159.952 114.895 139.445 128.555C117.311 143.191 113.08 146.768 111.941 151.484C111.29 153.924 109.988 157.339 108.848 159.127C105.919 164.006 98.7579 190.187 97.4559 201.083C96.4795 208.075 95.8285 210.189 94.3637 208.726C91.597 205.961 92.4107 183.195 95.503 172.95C97.9442 165.307 98.1069 162.38 96.4795 152.948C94.5265 141.402 95.3402 136.361 101.687 114.407C104.291 105.463 106.244 102.374 114.545 94.0801C119.915 88.8763 124.31 83.9978 124.31 83.3473C124.31 82.6968 128.216 79.2819 132.773 75.8669C137.492 72.4519 145.955 65.6219 151.489 60.5808C167.275 46.433 177.529 40.2535 187.782 38.9526C201.127 37.1638 216.588 32.6105 231.073 25.9431C243.442 20.2515 244.418 20.0889 259.391 20.7394C267.854 21.0646 280.06 22.6908 286.245 24.1544ZM204.219 124.652C209.265 126.116 222.61 130.994 234.002 135.548C245.232 139.938 256.136 143.679 258.252 143.679C260.205 143.679 265.088 142.215 268.994 140.426C274.69 137.824 275.829 136.523 275.178 133.922C274.202 130.019 275.829 129.856 286.408 133.108C297.963 136.523 300.567 136.361 299.102 131.807C298.614 129.856 296.986 126.929 295.522 125.303C290.639 119.774 296.335 122.701 302.032 128.555C312.936 139.938 320.911 159.94 322.701 180.105L324.003 194.578L333.442 203.034L342.882 211.328L337.185 210.677C333.279 210.189 329.211 211.328 324.328 213.93C317.656 217.507 315.703 217.67 292.104 217.182C278.27 217.019 262.809 217.67 257.927 218.646C252.881 219.621 242.954 220.597 235.793 220.597C222.285 220.922 210.892 224.825 195.594 234.257C185.503 240.436 188.27 247.429 199.825 245.315C202.592 244.664 207.149 245.315 210.241 246.616C217.728 249.706 222.285 248.405 230.422 241.249C239.048 233.769 243.279 231.492 248.487 231.492C250.766 231.492 256.299 229.541 261.019 227.102C271.272 221.898 287.059 221.41 292.429 226.126C299.102 232.305 303.985 246.128 300.241 248.567C299.265 249.055 292.918 246.453 285.919 242.713C273.225 236.046 273.225 236.046 259.717 237.021C245.883 237.997 238.722 240.599 232.212 246.616C227.818 250.519 227.493 253.934 231.073 256.535C233.189 258.162 233.351 259.137 231.561 262.878C229.771 266.78 229.934 267.594 232.7 269.708C239.373 274.749 252.719 276.7 261.995 273.936C264.599 273.123 270.784 271.659 275.666 270.521C280.549 269.382 286.733 266.78 289.174 264.666C291.778 262.552 294.871 260.764 296.173 260.764C299.753 260.764 304.961 250.844 304.961 244.014C304.961 237.509 301.706 229.704 296.824 224.174C293.894 220.922 293.894 220.922 307.077 220.922C317.656 220.76 321.887 220.109 327.258 217.182C331.001 215.231 335.232 213.604 336.697 213.604C340.44 213.604 346.95 221.247 352.321 231.98C357.692 242.55 359.808 250.519 362.086 269.87C363.551 281.253 363.225 284.831 360.459 296.214C357.855 306.134 357.041 314.265 357.041 330.201C357.204 349.39 359.808 371.506 362.574 374.108C363.225 374.759 366.806 374.108 370.549 372.807C375.92 370.856 378.524 368.417 382.918 361.424C385.847 356.546 387.8 354.106 387.149 355.895C386.336 357.684 383.732 365.002 381.128 371.994C378.524 378.987 373.478 390.37 369.898 397.2C361.11 414.112 337.023 447.286 321.724 463.873C311.471 475.094 306.914 478.509 297.637 482.9C284.292 489.079 271.109 491.681 253.532 491.844C238.885 492.006 233.514 490.38 225.54 483.388C222.447 480.623 218.216 477.696 216.263 476.72C211.055 474.444 201.778 461.272 204.382 460.296C206.01 459.808 205.521 457.857 203.08 452.978L199.5 446.311L204.057 449.563C209.916 453.954 214.473 453.141 215.124 447.612C215.449 444.197 214.147 442.245 209.102 438.017C202.755 433.139 200.639 429.886 203.731 429.886C206.335 429.886 225.377 448.262 223.912 449.238C222.447 450.214 218.704 456.556 218.704 458.182C218.704 460.621 222.936 458.67 228.632 453.466C236.932 445.985 241.163 445.172 250.44 449.238C259.554 453.303 261.995 453.466 263.297 450.214C264.925 445.985 262.809 443.709 255.485 441.432C250.603 439.969 247.999 438.342 247.348 435.903C246.371 432.326 247.673 425.333 249.626 422.568C251.579 419.804 252.719 413.624 251.254 412.811C250.603 412.324 247.999 414.6 245.72 417.69C243.279 420.78 240.187 423.382 238.885 423.382C237.583 423.382 233.026 425.17 228.795 427.447C219.03 432.651 213.822 432.651 207.963 427.122L203.243 422.731L210.567 420.617C214.635 419.316 219.192 418.666 220.82 419.154C224.075 419.967 237.42 415.901 242.303 412.486C244.093 411.348 247.836 410.372 250.766 410.372C253.858 410.372 258.903 408.746 262.321 406.632C265.576 404.518 270.784 401.916 273.713 400.778C279.247 398.501 280.549 395.086 276.48 393.46C273.062 392.159 264.437 394.11 257.764 397.688C253.37 399.965 250.115 400.452 243.93 399.639C237.095 398.826 234.979 399.314 231.398 402.079C228.144 404.68 224.889 405.494 217.565 405.494C209.753 405.494 206.823 406.307 202.266 409.722C195.594 414.763 191.037 417.365 191.037 416.064C191.037 415.576 193.803 412.161 197.384 408.258C202.266 403.054 204.219 398.989 206.01 390.858C208.451 379.475 211.055 377.686 211.869 386.63C212.52 394.11 215.775 396.875 221.145 394.436C224.563 392.809 224.889 391.996 223.587 388.581C221.634 383.215 215.449 376.222 212.682 376.222C211.543 376.222 208.939 372.645 206.823 368.417L202.917 360.448L207.963 357.196C216.751 351.342 227.004 346.626 229.446 347.602C232.538 348.74 232.375 354.432 229.283 355.732C227.981 356.22 224.726 356.22 222.122 355.732C216.426 354.594 214.473 357.033 218.379 360.448C220.82 362.725 222.285 362.725 230.585 360.774C235.955 359.473 241.489 357.359 243.116 355.895C250.44 349.228 247.999 337.682 236.769 325.973C233.189 322.233 228.144 315.566 225.702 311.013C222.61 305.484 219.518 302.394 216.1 301.093C211.869 299.629 210.729 298.166 209.916 293.125C209.265 289.547 206.823 284.343 203.894 281.091C199.5 276.212 197.872 275.399 191.525 275.399C187.619 275.399 182.899 276.212 181.272 277.025C178.505 278.489 178.017 277.838 177.203 271.334C176.552 267.431 173.948 260.926 171.507 256.861C167.764 251.169 165.16 249.055 157.836 246.291C152.791 244.502 146.932 241.737 144.816 240.436C142.7 238.973 137.818 237.347 133.912 236.696C129.029 235.72 126.914 234.582 127.076 233.118C127.239 231.818 128.541 223.361 130.006 214.417C137.492 167.096 137.98 157.013 133.586 152.135C129.355 147.581 131.308 139.938 137.329 135.548C143.839 130.994 157.836 126.929 163.369 128.23C166.787 129.043 168.903 128.23 172.483 124.978C176.552 121.4 178.342 120.912 186.154 121.4C191.037 121.725 199.174 123.189 204.219 124.652ZM127.89 144.654C127.402 147.094 128.541 151.647 130.494 155.55C134.237 163.03 134.075 164.331 126.1 215.068C124.31 226.126 123.333 236.208 123.821 237.347C124.31 238.81 123.496 239.623 121.706 239.623C119.915 239.623 117.149 240.111 115.358 240.599C112.592 241.249 110.964 239.135 105.105 227.589L98.1069 213.767L100.06 203.522C102.827 189.049 108.848 168.071 111.941 162.38C113.405 159.615 114.545 156.2 114.545 154.574C114.545 151.972 125.286 140.426 127.727 140.426C128.216 140.426 128.378 142.378 127.89 144.654ZM411.074 205.148C421.164 216.206 423.442 241.087 417.421 276.538C415.793 286.62 414.817 296.54 415.142 298.654C416.281 304.67 412.864 315.078 408.144 319.469L403.913 323.371L404.564 319.469C404.726 317.355 404.238 315.241 403.099 314.915C400.332 313.94 398.705 320.607 401.146 323.534C404.075 327.112 401.634 328.25 397.24 325.323C394.148 323.371 393.008 320.77 392.195 314.102C391.544 309.386 389.428 299.304 387.149 291.661C384.708 282.717 382.918 271.171 382.267 258.812C381.29 238.322 381.941 235.883 392.195 220.109C394.31 217.019 396.426 211.816 396.914 208.726C398.705 198.318 403.587 197.017 411.074 205.148ZM256.462 224.988C253.532 226.776 249.464 228.24 247.185 228.24C241.489 228.24 236.281 230.517 230.747 235.72C221.634 244.177 217.89 245.477 211.218 242.388C207.312 240.436 203.568 239.948 199.174 240.599C195.594 241.249 192.664 241.087 192.664 240.599C192.664 239.948 199.825 236.046 208.614 231.818C223.587 224.662 225.214 224.337 238.559 224.174C246.371 224.174 253.207 223.524 253.858 222.874C254.509 222.223 256.625 221.735 258.415 221.735C261.182 221.735 260.856 222.386 256.462 224.988ZM127.239 246.453C142.212 245.64 160.114 249.055 160.114 252.795C160.114 253.934 158.975 254.096 157.348 253.446C155.72 252.958 151 251.982 146.769 251.494C140.096 250.681 138.143 251.169 131.471 255.722C127.239 258.487 123.17 260.764 122.357 260.764C121.706 260.764 121.055 258.162 121.055 254.909C121.055 250.356 120.566 249.218 118.288 249.706C115.847 250.193 115.358 251.82 115.684 259.137C116.009 266.13 115.847 267.268 114.545 264.341C113.731 262.39 112.754 258.162 112.429 255.235C112.103 252.307 110.639 248.079 109.174 245.965C105.268 240.599 105.919 237.834 109.662 243.038C112.754 247.266 113.243 247.266 127.239 246.453ZM137.329 241.249C139.12 242.388 137.492 242.876 131.633 242.876C125.774 242.876 124.147 242.388 125.937 241.249C127.239 240.436 129.843 239.623 131.633 239.623C133.424 239.623 136.027 240.436 137.329 241.249ZM284.617 246.453C292.267 250.193 298.451 253.934 298.451 254.747C298.451 257.836 293.243 257.674 290.965 254.421C287.547 249.706 280.223 246.128 270.296 244.502C261.67 243.201 255.16 244.664 239.536 251.494C236.118 253.121 233.189 253.608 232.538 252.633C231.236 250.519 245.883 242.388 253.532 241.087C266.878 238.973 270.621 239.623 284.617 246.453ZM272.411 251.006C272.411 255.072 268.668 262.715 265.413 265.479C263.46 266.943 261.833 265.967 256.299 259.788C247.999 250.193 249.301 248.405 265.576 247.917C271.435 247.754 272.411 248.242 272.411 251.006ZM284.943 263.04C284.455 264.341 272.086 268.732 268.831 268.894C268.18 268.894 269.482 266.293 271.598 263.04C273.876 259.788 275.666 255.56 275.666 253.608C275.829 250.681 276.317 250.844 280.549 255.885C283.153 258.975 285.106 262.227 284.943 263.04ZM378.849 266.618C379.5 274.261 381.453 285.156 383.243 290.848C387.8 305.809 390.893 325.648 389.428 330.527C388.777 332.803 387.312 338.983 386.336 344.024C384.383 354.269 377.222 365.49 370.712 368.417C365.341 370.856 364.365 369.392 362.086 353.944C359.319 335.08 359.808 316.054 363.876 298.816C366.969 285.481 367.131 281.579 365.829 268.894L364.365 254.421L369.247 253.771C371.851 253.446 374.943 252.958 375.92 252.958C377.059 252.795 378.198 257.836 378.849 266.618ZM153.604 256.535C161.416 258.65 162.718 258.65 164.346 256.535C165.973 254.584 166.787 255.397 169.554 261.089C175.413 273.773 178.668 298.166 178.18 324.185C177.691 351.667 179.482 359.147 187.293 360.936C201.29 364.026 201.127 364.026 203.243 370.531C205.196 375.897 205.196 378.336 202.755 388.256C200.639 397.525 198.686 401.428 193.152 407.77C185.991 415.739 184.201 421.755 188.758 421.755C190.06 421.755 195.594 418.828 200.802 415.251C209.265 409.559 211.543 408.746 219.843 408.746C226.028 408.746 230.747 407.77 233.026 406.144C235.304 404.518 241.001 403.38 247.185 403.054C253.37 402.729 259.066 401.591 261.182 399.965C263.297 398.501 266.064 397.363 267.529 397.363C268.831 397.363 266.552 399.639 262.321 402.241C257.927 405.006 252.393 407.12 249.789 407.12C247.185 407.12 241.163 408.909 236.281 411.185C231.561 413.462 225.051 415.251 221.959 415.251C218.867 415.251 212.682 416.226 208.125 417.365L199.988 419.479L199.5 426.959C199.011 434.114 199.5 434.765 205.684 439.806C209.265 442.733 212.194 445.985 212.194 447.286C212.194 450.214 210.078 449.888 205.521 446.311C200.313 442.408 194.292 440.456 194.292 442.896C194.292 444.034 195.594 446.799 197.221 449.075C202.429 456.556 202.755 457.531 200.151 456.556C198.849 456.068 192.664 448.913 186.317 440.619L174.925 425.658L175.901 411.836C176.715 398.989 176.389 396.875 170.693 379.963C167.438 369.88 165.16 361.099 165.648 360.286C166.787 358.334 159.626 348.089 154.581 344.837C150.838 342.235 150.512 341.097 150.024 327.925L149.536 313.614H144.653C133.261 313.452 129.518 309.386 135.702 303.857C138.794 301.093 138.957 301.255 143.839 305.321C146.769 307.598 150.024 309.549 151.326 309.549C154.906 309.549 165.322 303.857 168.903 299.954C172.321 296.214 171.344 291.661 167.113 291.661C164.834 291.661 164.997 290.848 168.74 287.596C171.181 285.319 173.134 282.554 173.134 281.741C173.134 280.766 170.693 277.513 167.601 274.423C160.928 267.756 154.744 267.268 142.049 272.147L133.586 275.237L128.867 271.334C126.263 269.057 122.845 267.268 121.38 267.268C119.915 267.106 121.38 265.805 124.635 264.179C128.053 262.39 132.773 259.625 135.214 257.674C140.747 253.608 142.212 253.608 153.604 256.535ZM247.999 255.885C247.999 256.698 250.928 260.438 254.509 264.016L261.019 270.521L256.787 271.496C251.905 272.797 236.281 268.894 235.467 266.293C234.653 263.853 242.791 254.259 245.72 254.259C247.022 254.259 247.999 254.909 247.999 255.885ZM125.286 273.936C126.751 275.562 129.029 277.025 130.169 277.025C131.796 277.025 132.122 278.489 131.308 282.067C130.494 285.969 131.308 287.921 135.051 291.824L139.771 296.865L153.604 295.726L167.438 294.751L162.067 299.792C155.883 305.484 149.047 306.134 144.653 301.418C143.026 299.629 140.584 298.166 139.282 298.166C135.376 298.166 129.192 304.833 129.192 308.898C129.192 313.289 136.19 317.68 143.188 317.68H147.583L146.606 328.575C145.63 341.259 147.094 346.463 152.465 348.415C157.022 350.203 161.742 356.871 161.742 361.587C161.742 363.538 164.346 372.807 167.438 382.239C172.972 398.826 174.111 408.258 171.67 416.877C170.693 420.617 170.205 420.292 164.509 411.185C161.091 405.819 151.489 387.443 143.026 370.531C125.612 335.568 122.357 324.185 122.845 298.979C123.17 286.782 122.682 283.205 119.753 277.513C117.8 273.773 116.172 270.358 116.172 269.87C116.172 268.244 122.682 271.171 125.286 273.936ZM163.207 275.887C165.322 278.652 161.905 282.392 154.744 284.994C149.536 286.945 147.908 286.457 145.467 281.904C144.002 279.302 144.49 278.326 148.234 276.375C153.93 273.285 160.765 273.123 163.207 275.887ZM141.235 280.928C140.747 282.067 142.212 284.668 144.49 286.457C147.745 289.059 149.861 289.384 154.093 288.409C162.556 286.457 164.834 284.994 165.973 281.579C166.624 279.302 167.438 278.814 168.74 280.115C170.693 282.067 171.019 281.904 162.718 287.433C150.187 295.889 128.378 289.872 137.655 280.603C140.259 278.001 142.375 278.164 141.235 280.928ZM199.988 283.042C204.057 287.596 204.545 288.409 206.335 297.027C207.149 300.28 209.102 302.394 212.845 303.857C216.751 305.484 220.006 308.898 223.261 314.753C226.028 319.469 230.585 325.486 233.351 328.25C242.954 337.194 245.558 346.463 240.35 352.155C236.606 356.383 235.304 355.895 234.653 349.716C234.328 345.65 233.351 344.349 230.422 344.024C225.702 343.374 215.124 347.439 206.01 353.618C197.709 359.147 195.268 359.473 188.27 355.082C182.899 351.992 182.899 351.667 182.736 339.308C182.736 332.315 182.574 316.216 182.411 303.369C182.248 289.222 182.736 279.952 183.713 279.627C188.921 277.351 196.082 278.977 199.988 283.042ZM410.26 331.34C409.609 332.803 408.47 333.942 407.493 333.942C405.703 333.942 405.215 328.575 407.005 326.786C408.795 325.16 411.236 328.575 410.26 331.34ZM243.93 433.952C243.93 440.294 243.605 441.27 240.512 441.27C238.722 441.27 234.816 442.083 231.887 443.058C227.33 444.685 226.191 444.522 222.61 441.107C218.053 436.716 217.565 434.765 221.634 434.765C223.098 434.765 227.33 432.976 230.91 430.699C234.491 428.585 238.885 426.634 240.675 426.634C243.442 426.634 243.93 427.772 243.93 433.952Z" fill="black"/>
</svg>
