<svg width="100" height="100" viewBox="0 0 100 100" fill="none" xmlns="http://www.w3.org/2000/svg">
<path fill-rule="evenodd" clip-rule="evenodd" d="M88.4625 0H11.5375C5.16667 0 0 5.16667 0 11.5375V88.4542C0 94.8333 5.16667 100 11.5375 100H88.4667C94.8375 100 100 94.8333 100 88.4542V11.5375C100 5.16667 94.8375 0 88.4625 0V0ZM50 30.7708C60.6208 30.7708 69.2333 39.375 69.2333 50C69.2333 60.6208 60.6208 69.2333 50 69.2333C39.3792 69.2333 30.7708 60.6167 30.7708 50C30.7708 39.375 39.3792 30.7708 50 30.7708V30.7708ZM87.5 83.6583C87.5 85.7792 85.7792 87.5 83.65 87.5H16.35C14.2208 87.5 12.5 85.7792 12.5 83.6583V41.6667H20.4042C20.0375 42.9792 19.7667 44.3333 19.5708 45.7125C19.3625 47.1167 19.2333 48.5417 19.2333 50C19.2333 66.9958 33.0083 80.7708 50 80.7708C66.9917 80.7708 80.7667 66.9958 80.7667 50C80.7667 48.5417 80.6375 47.1167 80.4292 45.7167C80.2333 44.3375 79.9625 42.9833 79.5958 41.6708H87.5V83.6583V83.6583ZM87.5 25.4083C87.5 27.5292 85.7792 29.2542 83.65 29.2542H74.5917C72.4625 29.2542 70.7458 27.5292 70.7458 25.4083V16.3458C70.7458 14.2208 72.4625 12.5 74.5917 12.5H83.65C85.7792 12.5 87.5 14.2208 87.5 16.3458V25.4083Z" fill="black"/>
</svg>
