<svg width="16" height="17" viewBox="0 0 16 17" fill="none" xmlns="http://www.w3.org/2000/svg">
<path fill-rule="evenodd" clip-rule="evenodd" d="M7.55549 0.259357C7.4392 0.296328 7.2119 0.391397 7.05333 0.46534C6.66217 0.639633 6.01201 0.819207 5.753 0.819207C5.494 0.819207 5.02884 1.08329 4.64826 1.44772C4.50554 1.58504 4.24125 1.80687 4.06681 1.93891C3.7708 2.16602 3.06778 2.88432 2.96206 3.07445C2.93564 3.12199 2.85635 3.37551 2.78763 3.63959C2.67663 4.05683 2.66606 4.18887 2.69777 4.64837C2.7242 5.08675 2.71363 5.21879 2.63963 5.3878C2.58677 5.50928 2.54977 5.74695 2.54448 5.94237C2.5392 6.23286 2.57091 6.35433 2.73477 6.71877C2.84049 6.95644 2.93035 7.17827 2.93035 7.22052C2.93035 7.25749 2.99378 7.42122 3.07307 7.57967C3.15236 7.73812 3.22107 7.93882 3.23164 8.0286C3.25279 8.22931 3.39551 8.68352 3.48537 8.82085C3.52765 8.88423 3.55937 9.20112 3.58051 9.61309C3.60694 10.3525 3.69151 10.7539 3.92409 11.224C4.46854 12.3173 4.87555 13.0673 5.05527 13.2891C5.16627 13.4317 5.25613 13.569 5.25613 13.6007C5.25613 13.738 5.44114 13.9968 5.77943 14.3296C5.97501 14.525 6.20759 14.7891 6.29216 14.9211C6.37674 15.0479 6.53003 15.2169 6.63574 15.2908C6.74146 15.3648 6.9159 15.4915 7.02161 15.576C7.44977 15.9088 8.62323 15.8665 9.44783 15.4862C9.98699 15.2327 10.4521 14.7257 11.3613 13.3894C11.8212 12.7134 11.9692 12.4176 12.2652 11.5673C12.4026 11.1606 12.4661 10.8965 12.4661 10.68C12.4713 10.4476 12.4872 10.3789 12.5506 10.3789C12.6511 10.3789 12.7198 10.4317 12.7938 10.5638C12.9312 10.8173 13.1744 10.6007 13.1162 10.2786C13.1004 10.2099 13.1374 10.0567 13.1902 9.93527C13.2484 9.80323 13.2907 9.59724 13.2907 9.40182C13.2907 9.22753 13.3277 8.88423 13.3752 8.63599C13.4704 8.11839 13.4862 6.98813 13.4017 6.77686C13.3647 6.67651 13.3647 6.54447 13.3964 6.35433C13.4492 6.09025 13.3964 5.68357 13.2431 5.17125C13.2167 5.08147 13.1797 4.85436 13.1585 4.6695C13.1321 4.41598 13.0634 4.22056 12.8836 3.88254C12.7515 3.63959 12.5982 3.26987 12.5401 3.06389C12.3868 2.49348 12.3551 2.44066 12.0485 2.24524C11.7366 2.04982 11.4406 1.78574 10.9437 1.2523C10.4416 0.713575 10.3147 0.650196 9.27339 0.428368C9.0831 0.386116 8.83467 0.328017 8.72366 0.301609C8.34837 0.201258 7.78278 0.180133 7.55549 0.259357ZM8.98267 0.475903C9.18882 0.523437 9.47426 0.59738 9.62226 0.639633C9.77026 0.681886 9.93413 0.713575 9.99227 0.713575C10.1773 0.718857 10.4733 0.945966 10.9702 1.47413C11.245 1.75933 11.6467 2.12376 11.8688 2.27693L12.2705 2.55686L12.3868 3.01107C12.4555 3.25931 12.5718 3.57621 12.6458 3.71353C12.9629 4.29451 13.0211 4.44239 13.0264 4.68535C13.0264 4.81739 13.0739 5.08147 13.1321 5.26632C13.1902 5.4459 13.2537 5.77864 13.2695 5.99518L13.3065 6.39131L13.0686 6.1642C12.7621 5.86843 12.6458 5.87371 12.5136 6.1906C12.4555 6.33321 12.3921 6.51278 12.3709 6.59201C12.3498 6.67651 12.2388 6.84552 12.1278 6.967C11.9322 7.17827 11.9163 7.22052 11.9163 7.49516C11.9163 7.65889 11.8952 7.79093 11.8688 7.79093C11.8423 7.79093 11.7525 7.80677 11.6626 7.82261L11.6626 7.82262C11.604 7.83434 11.567 7.84172 11.5397 7.82877C11.4932 7.80667 11.4747 7.72545 11.4247 7.50572C11.3243 7.05679 11.1287 6.73461 10.7164 6.31736C10.5314 6.13251 10.357 5.93709 10.3306 5.88427C10.2989 5.83145 10.2777 5.64132 10.2777 5.45646C10.2777 5.10259 10.0874 4.49521 9.84955 4.09909C9.68569 3.82972 9.29982 3.51283 9.13596 3.51283C8.97738 3.51283 8.97738 3.53924 9.14125 3.75578C9.21525 3.85085 9.27339 3.94064 9.27339 3.9512C9.27339 3.96705 9.16768 3.94592 9.04081 3.90895C8.91395 3.87198 8.73423 3.82972 8.6338 3.81916C8.46466 3.80332 8.45408 3.81388 8.45408 3.95648C8.45408 4.07796 8.42237 4.12021 8.25851 4.18359C8.0735 4.25754 8.04707 4.25225 7.38634 3.99346C6.66746 3.71353 6.11244 3.54452 5.74243 3.4917C5.51514 3.46001 5.37242 3.50227 5.1927 3.66071C5.13984 3.70297 4.99184 3.73994 4.85969 3.74522C4.62711 3.7505 4.62183 3.74522 4.73283 3.67128C4.79626 3.62902 4.92312 3.56564 5.0077 3.53395C5.09756 3.50226 5.18213 3.44945 5.1927 3.41776C5.24556 3.25403 4.88084 3.42304 4.21482 3.8667C3.49594 4.34204 3.3585 4.45824 3.3215 4.6114C3.30036 4.69063 3.25807 4.80154 3.22107 4.85964C3.12593 5.01809 2.89335 5.86843 2.85106 6.22229C2.81935 6.4494 2.7982 6.51806 2.75063 6.47053C2.66077 6.38074 2.6872 5.64132 2.78763 5.30858C2.86692 5.06034 2.8722 4.96527 2.81935 4.65894C2.75592 4.28394 2.78235 4.12021 2.98849 3.4072C3.07307 3.11671 3.1365 3.01636 3.40608 2.747C3.58051 2.57798 3.72323 2.41954 3.72323 2.39841C3.72323 2.37728 3.85009 2.26637 3.9981 2.15545C4.15139 2.04454 4.42625 1.82271 4.60597 1.65898C5.1187 1.19948 5.45171 0.998782 5.78472 0.956529C6.21816 0.898431 6.72032 0.750547 7.19076 0.534001C7.59249 0.349144 7.6242 0.343862 8.1105 0.364989C8.38537 0.375552 8.78181 0.428368 8.98267 0.475903ZM6.31859 3.73994C6.48245 3.78747 6.9159 3.94592 7.28591 4.09381C7.65063 4.23641 8.00478 4.35789 8.0735 4.35789C8.13693 4.35789 8.29551 4.31035 8.42237 4.25225C8.60737 4.16775 8.64438 4.1255 8.62323 4.04099C8.59152 3.91423 8.64438 3.90895 8.98796 4.01458C9.36325 4.12549 9.44783 4.12021 9.40025 3.97233C9.3844 3.90895 9.33154 3.81388 9.28396 3.76106C9.12539 3.58149 9.31039 3.67656 9.4954 3.8667C9.84955 4.23641 10.1086 4.88605 10.1667 5.54097L10.209 6.01103L10.5156 6.28567L10.8222 6.55504L10.6371 6.53391C10.5103 6.51806 10.3781 6.55504 10.2196 6.63954C10.0028 6.75574 9.93941 6.76102 9.17296 6.74517C8.72366 6.73989 8.22151 6.76102 8.06293 6.79271C7.89907 6.8244 7.57663 6.85609 7.34405 6.85609C6.90532 6.86665 6.53531 6.99341 6.03844 7.29974C5.71072 7.50044 5.80058 7.72755 6.17587 7.65889C6.26573 7.63777 6.41374 7.65889 6.51417 7.70115C6.75732 7.8015 6.90532 7.75924 7.16962 7.52685C7.44977 7.2839 7.5872 7.20995 7.75635 7.20995C7.83035 7.20995 8.01007 7.14658 8.16336 7.06735C8.49637 6.89834 9.0091 6.8825 9.18353 7.03566C9.40025 7.23636 9.55883 7.6853 9.43726 7.76452C9.40554 7.78037 9.19939 7.69586 8.9721 7.57439C8.76048 7.46324 8.65748 7.40914 8.54802 7.3871C8.44422 7.36619 8.33462 7.37411 8.12107 7.38953C7.67177 7.42122 7.4392 7.50573 7.22776 7.70115C7.08504 7.8279 7.07447 7.93882 7.19076 8.02332C7.25948 8.07614 7.26476 8.10783 7.20662 8.22931C7.14847 8.35606 7.15376 8.38247 7.24362 8.45113C7.46034 8.61486 7.89378 8.67824 8.19508 8.58846C8.27965 8.56205 8.48051 8.51451 8.63909 8.47754C8.79767 8.44057 8.99853 8.35606 9.07782 8.2874C9.16239 8.21874 9.26282 8.16064 9.30511 8.16064C9.4214 8.16064 9.59055 7.83847 9.59055 7.61664C9.59055 7.40538 9.48483 7.15186 9.32625 6.97228C9.29254 6.93485 9.27077 6.91069 9.27576 6.89508C9.28486 6.86665 9.38282 6.86665 9.65926 6.86665C10.0028 6.86137 10.1403 6.84024 10.3147 6.74517C10.4363 6.68179 10.5737 6.62898 10.6213 6.62898C10.7429 6.62898 10.9543 6.87721 11.1287 7.2258C11.3032 7.56911 11.3719 7.8279 11.4459 8.45641C11.4935 8.82613 11.4829 8.94232 11.393 9.31204C11.3085 9.63421 11.282 9.8983 11.282 10.4159C11.2873 11.0391 11.3719 11.7574 11.4617 11.8419C11.4829 11.8631 11.5992 11.8419 11.7208 11.7997C11.8952 11.7363 11.9798 11.6571 12.1225 11.43C12.2176 11.2715 12.2811 11.1923 12.2599 11.2504C12.2423 11.289 12.199 11.4072 12.1471 11.5488L12.1471 11.5489L12.147 11.5489C12.1209 11.6201 12.0926 11.6973 12.0643 11.7733C11.9798 12.0004 11.8159 12.3701 11.6996 12.5919C11.4142 13.1412 10.6319 14.2187 10.135 14.7574C9.80198 15.1218 9.65398 15.2327 9.35268 15.3753C8.91924 15.576 8.49108 15.6605 7.92021 15.6658C7.44448 15.6711 7.27005 15.6183 7.01104 15.3912C6.91061 15.3014 6.77318 15.2063 6.70975 15.1746C6.5406 15.1007 6.2393 14.6729 6.32388 14.6412C6.37674 14.6253 6.36088 14.562 6.28159 14.4035L6.1653 14.187L6.31331 14.2926C6.5036 14.4352 6.6516 14.4088 6.67275 14.2292C6.68332 14.1183 6.64103 14.0549 6.47717 13.9176C6.27102 13.7592 6.2023 13.6535 6.30273 13.6535C6.38731 13.6535 7.00576 14.2503 6.95818 14.282C6.91061 14.3137 6.78903 14.5197 6.78903 14.5725C6.78903 14.6517 6.92647 14.5884 7.11147 14.4194C7.38105 14.1764 7.51849 14.15 7.81978 14.282C8.11579 14.4141 8.19508 14.4194 8.23736 14.3137C8.29022 14.1764 8.22151 14.1025 7.98364 14.0285C7.82507 13.981 7.74049 13.9282 7.71935 13.8489C7.68763 13.7327 7.72992 13.5056 7.79335 13.4158C7.85678 13.3261 7.89378 13.1254 7.84621 13.099C7.82507 13.0831 7.74049 13.157 7.66649 13.2574C7.5872 13.3577 7.48677 13.4423 7.44448 13.4423C7.4022 13.4423 7.25419 13.5004 7.11676 13.5743C6.79961 13.7433 6.63046 13.7433 6.44017 13.5637L6.28688 13.4211L6.52474 13.3525C6.65689 13.3102 6.80489 13.2891 6.85775 13.3049C6.96347 13.3313 7.39691 13.1993 7.55549 13.0884C7.61363 13.0514 7.73521 13.0197 7.83035 13.0197C7.93078 13.0197 8.09464 12.9669 8.20565 12.8982C8.31136 12.8296 8.48051 12.7451 8.57566 12.7081C8.75538 12.6342 8.79766 12.5233 8.66552 12.4704C8.55452 12.4282 8.27436 12.4916 8.05764 12.6078C7.91493 12.6817 7.80921 12.6975 7.60834 12.6711C7.38634 12.6447 7.31762 12.6606 7.20133 12.7504C7.09562 12.8349 6.9899 12.8613 6.75203 12.8613C6.49831 12.8613 6.40317 12.8877 6.25516 12.9986C6.03844 13.1623 5.89044 13.2468 5.89044 13.2046C5.89044 13.1887 5.9803 13.0778 6.09659 12.9511C6.25516 12.7821 6.31859 12.65 6.37674 12.3859C6.45602 12.0162 6.5406 11.9581 6.56703 12.2486C6.58817 12.4916 6.69389 12.5814 6.86832 12.5021C6.97933 12.4493 6.9899 12.4229 6.94761 12.312C6.88418 12.1377 6.68332 11.9106 6.59346 11.9106C6.55646 11.9106 6.47188 11.7944 6.40317 11.6571L6.27631 11.3983L6.44017 11.2926C6.7256 11.1025 7.05861 10.9493 7.1379 10.981C7.23833 11.018 7.23305 11.2029 7.13262 11.2451C7.09033 11.261 6.98461 11.261 6.90004 11.2451C6.71503 11.2081 6.6516 11.2874 6.77846 11.3983C6.85775 11.4722 6.90532 11.4722 7.1749 11.4088C7.34934 11.3666 7.52906 11.2979 7.58192 11.2504C7.81978 11.0338 7.74049 10.6588 7.37577 10.2786C7.25948 10.1571 7.09562 9.94055 7.01633 9.79266C6.9159 9.61309 6.81546 9.51274 6.70446 9.47048C6.56703 9.42295 6.53003 9.37542 6.5036 9.21169C6.48245 9.09549 6.40317 8.92648 6.30802 8.82085C6.1653 8.6624 6.11244 8.63599 5.90629 8.63599C5.77943 8.63599 5.62614 8.6624 5.57328 8.68881C5.48342 8.73634 5.46757 8.71521 5.44114 8.50395C5.41999 8.37719 5.33542 8.16593 5.25613 8.03389C5.13456 7.84903 5.04998 7.78037 4.81212 7.69058C4.64826 7.63248 4.45797 7.5427 4.38925 7.50044C4.32053 7.45291 4.16196 7.40009 4.0351 7.37897C3.87652 7.34728 3.8078 7.31031 3.81309 7.26277C3.81838 7.22052 3.86066 6.94587 3.90824 6.65539C4.15139 5.11844 4.16724 4.79098 4.02452 4.63253C3.88709 4.48464 3.95052 4.23641 4.1461 4.09381C4.35753 3.94592 4.81212 3.81388 4.99184 3.85613C5.10284 3.88254 5.17156 3.85613 5.28785 3.7505C5.41999 3.63431 5.47814 3.61846 5.73186 3.63431C5.89044 3.64487 6.15473 3.6924 6.31859 3.73994ZM3.83952 4.38958C3.82366 4.4688 3.86066 4.61669 3.92409 4.74344C4.04567 4.9864 4.04038 5.02865 3.78137 6.67651C3.72323 7.03566 3.69151 7.36312 3.70737 7.40009C3.72323 7.44763 3.6968 7.47404 3.63866 7.47404C3.58051 7.47404 3.49065 7.48988 3.43251 7.50572C3.34265 7.52685 3.28979 7.45819 3.0995 7.0832L2.8722 6.63426L2.93564 6.30152C3.0255 5.83145 3.22107 5.15013 3.3215 4.96527C3.36908 4.87548 3.40608 4.76457 3.40608 4.71175C3.40608 4.62725 3.75495 4.25225 3.83423 4.25225C3.85009 4.25225 3.85538 4.31563 3.83952 4.38958ZM13.0369 6.35433C13.3647 6.71348 13.4387 7.52157 13.2431 8.67296C13.1902 9.00042 13.1585 9.3226 13.1691 9.39126C13.2061 9.58668 13.0951 9.9247 12.9418 10.0673L12.8044 10.1941L12.8255 10.0673C12.8308 9.99865 12.8149 9.92998 12.7779 9.91942C12.6881 9.88773 12.6352 10.1043 12.7145 10.1993C12.8096 10.3155 12.7304 10.3525 12.5876 10.2574C12.4872 10.1941 12.4502 10.1096 12.4238 9.89301C12.4026 9.73985 12.3339 9.41239 12.2599 9.16415C12.1806 8.87366 12.1225 8.49867 12.1013 8.09727C12.0696 7.43178 12.0908 7.35256 12.4238 6.84024C12.4925 6.73989 12.5612 6.57088 12.5771 6.47053C12.6352 6.13251 12.7938 6.09025 13.0369 6.35433ZM8.01536 6.99869C7.92021 7.05679 7.78806 7.10432 7.71406 7.10432C7.52906 7.10432 7.35991 7.17827 7.18019 7.34728C6.88418 7.62192 6.76261 7.66417 6.54588 7.56382C6.41902 7.50044 6.29745 7.4846 6.15473 7.50572C6.03844 7.52685 5.9433 7.52157 5.9433 7.50572C5.9433 7.4846 6.17587 7.35784 6.46131 7.22052C6.94761 6.98813 7.00047 6.97756 7.43391 6.97228C7.68763 6.97228 7.90964 6.95116 7.93078 6.93003C7.95193 6.9089 8.02064 6.89306 8.07879 6.89306C8.16865 6.89306 8.15808 6.91419 8.01536 6.99869ZM3.81838 7.69586C4.30468 7.66946 4.88612 7.78037 4.88612 7.90185C4.88612 7.93882 4.84912 7.9441 4.79626 7.92297C4.7434 7.90713 4.59011 7.87544 4.45268 7.85959C4.23596 7.83319 4.17253 7.84903 3.95581 7.99692C3.81838 8.0867 3.68623 8.16064 3.6598 8.16064C3.63866 8.16064 3.61751 8.07614 3.61751 7.97051C3.61751 7.82262 3.60165 7.78565 3.52765 7.8015C3.51983 7.80306 3.51262 7.80498 3.506 7.80741L3.49632 7.70944C3.56934 7.71023 3.67071 7.70444 3.81838 7.69586ZM4.1461 7.52685C4.20424 7.56382 4.15139 7.57967 3.96109 7.57967C3.7708 7.57967 3.71794 7.56382 3.77609 7.52685C3.81838 7.50044 3.90295 7.47404 3.96109 7.47404C4.01924 7.47404 4.10381 7.50044 4.1461 7.52685ZM8.92981 7.69586C8.97803 7.71944 9.02446 7.74302 9.06797 7.7659L8.99317 7.82076C8.86534 7.73408 8.68469 7.66853 8.46466 7.63248C8.1845 7.59023 7.97307 7.63777 7.46563 7.85959C7.35462 7.91241 7.25948 7.92825 7.23833 7.89656C7.19605 7.8279 7.67178 7.56382 7.92021 7.52157C8.35365 7.45291 8.47523 7.47404 8.92981 7.69586ZM8.53337 7.84375C8.53337 7.97579 8.4118 8.22402 8.30608 8.31381C8.24265 8.36135 8.18979 8.32966 8.01007 8.12896C7.74049 7.81734 7.78278 7.75924 8.31136 7.7434C8.50166 7.73812 8.53337 7.75396 8.53337 7.84375ZM8.94038 8.23459C8.92453 8.27684 8.5228 8.41944 8.41708 8.42473C8.39594 8.42473 8.43823 8.34022 8.50694 8.23459C8.58094 8.12896 8.63909 7.99163 8.63909 7.92825C8.64438 7.83318 8.66023 7.83847 8.79766 8.0022C8.88224 8.10255 8.94567 8.20818 8.94038 8.23459ZM11.9903 8.35078C12.0115 8.59902 12.0749 8.95289 12.133 9.13774C12.2811 9.62365 12.3815 10.268 12.3339 10.4265C12.3128 10.5004 12.2652 10.7011 12.2335 10.8648C12.1701 11.1976 11.9375 11.562 11.726 11.6571C11.5516 11.7363 11.5199 11.6888 11.4459 11.187C11.356 10.5743 11.3719 9.95639 11.504 9.39654C11.6045 8.96345 11.6097 8.83669 11.5675 8.42473L11.5199 7.95466L11.6785 7.93354C11.706 7.9301 11.7352 7.9261 11.7632 7.92227L11.7632 7.92226C11.8212 7.91433 11.8738 7.90713 11.8952 7.90713C11.9322 7.90185 11.9692 8.06558 11.9903 8.35078ZM4.67469 8.02332C4.92841 8.09198 4.9707 8.09198 5.02355 8.02332C5.07641 7.95994 5.10284 7.98635 5.1927 8.17121C5.38299 8.58317 5.48871 9.37542 5.47285 10.2205C5.457 11.1131 5.51514 11.356 5.76886 11.4141C6.21782 11.5132 6.21822 11.5145 6.28436 11.718L6.28688 11.7257C6.35031 11.9 6.35031 11.9792 6.27102 12.3014C6.2023 12.6025 6.13887 12.7292 5.95915 12.9352C5.72657 13.194 5.66843 13.3894 5.81643 13.3894C5.85872 13.3894 6.03844 13.2944 6.20759 13.1782C6.48245 12.9933 6.55646 12.9669 6.82604 12.9669C7.0269 12.9669 7.18019 12.9352 7.25419 12.8824C7.32819 12.8296 7.5132 12.7926 7.71406 12.7821C7.91493 12.7715 8.09993 12.7345 8.16865 12.6817C8.23736 12.6342 8.32722 12.5972 8.3748 12.5972C8.41708 12.5972 8.34308 12.6711 8.20565 12.7556C8.06293 12.8454 7.88321 12.9141 7.79864 12.9141C7.71406 12.9141 7.51848 12.9722 7.35991 13.0461C7.20662 13.1201 6.99518 13.1782 6.89475 13.1782C6.79432 13.1782 6.59346 13.2099 6.44545 13.2468L6.18116 13.3155L6.1653 13.5585C6.14944 13.7908 6.1653 13.812 6.36617 13.9757C6.48245 14.0708 6.5776 14.1764 6.5776 14.2187C6.5776 14.3137 6.50888 14.3032 6.36088 14.187C6.19173 14.0602 5.99615 13.9968 5.99615 14.076C5.99615 14.113 6.03844 14.2028 6.0913 14.2767C6.26045 14.5197 6.27102 14.5514 6.18645 14.5197C6.14416 14.5039 5.9433 14.2715 5.73715 14.0021L5.36714 13.5162L5.39885 13.0673C5.42528 12.65 5.41471 12.5814 5.2297 12.0321C5.12399 11.7046 5.04998 11.4194 5.06584 11.393C5.10284 11.3296 4.87026 10.9969 4.7064 10.8912C4.58483 10.8067 4.57426 10.7698 4.5584 10.342L4.54254 9.87717H4.38396C4.01395 9.87189 3.89238 9.73985 4.09324 9.56027C4.19316 9.47094 4.1989 9.47572 4.35514 9.60581L4.35753 9.60781C4.45268 9.68175 4.5584 9.74513 4.60068 9.74513C4.71697 9.74513 5.05527 9.56027 5.17156 9.43351C5.28256 9.31204 5.25085 9.16415 5.11341 9.16415C5.03941 9.16415 5.0447 9.13774 5.16627 9.03211C5.24556 8.95817 5.30899 8.86838 5.30899 8.84197C5.30899 8.81028 5.2297 8.70465 5.12927 8.6043C4.91255 8.38775 4.71169 8.37191 4.29939 8.53036L4.02452 8.63071L3.87123 8.50395C3.78666 8.43001 3.67566 8.37191 3.62808 8.37191C3.58051 8.36663 3.62808 8.32437 3.7338 8.27156C3.8448 8.21346 3.9981 8.12367 4.07738 8.06029C4.2571 7.92825 4.30468 7.92825 4.67469 8.02332ZM7.74049 8.0022C7.74049 8.0286 7.83564 8.15008 7.95193 8.26628L8.16336 8.47754L8.02593 8.50923C7.86735 8.55148 7.35991 8.42473 7.33348 8.34022C7.30705 8.261 7.57134 7.94938 7.66649 7.94938C7.70878 7.94938 7.74049 7.97051 7.74049 8.0022ZM3.75495 8.58846C3.80252 8.64127 3.87652 8.68881 3.91352 8.68881C3.96638 8.68881 3.97695 8.73634 3.95052 8.85254C3.92409 8.97929 3.95052 9.04267 4.0721 9.16943L4.22539 9.33316L4.67469 9.29619L5.12399 9.2645L4.94955 9.42823C4.74869 9.61309 4.52668 9.63421 4.38396 9.48105C4.33111 9.42295 4.25182 9.37542 4.20953 9.37542C4.08267 9.37542 3.88181 9.59196 3.88181 9.724C3.88181 9.8666 4.1091 10.0092 4.33639 10.0092H4.47911L4.44739 10.3631C4.41568 10.775 4.46325 10.9441 4.63769 11.0074C4.78569 11.0655 4.93898 11.2821 4.93898 11.4352C4.93898 11.4986 5.02355 11.7997 5.12399 12.106C5.30371 12.6447 5.34071 12.9511 5.26142 13.231C5.2297 13.3525 5.21385 13.3419 5.02884 13.0461C4.91784 12.8718 4.60597 12.275 4.33111 11.7257C3.76552 10.5902 3.6598 10.2205 3.67566 9.40182C3.68623 9.0057 3.67037 8.88951 3.57523 8.70465C3.5118 8.58317 3.45894 8.47226 3.45894 8.45641C3.45894 8.4036 3.67037 8.49867 3.75495 8.58846ZM4.98655 8.65183C5.05527 8.74162 4.94427 8.8631 4.71169 8.9476C4.54254 9.01098 4.48968 8.99514 4.41039 8.84725C4.36282 8.76275 4.37868 8.73106 4.50025 8.66768C4.68526 8.56733 4.90726 8.56205 4.98655 8.65183ZM4.27296 8.81556C4.2571 8.85254 4.30468 8.93704 4.37868 8.99514C4.4844 9.07965 4.55311 9.09021 4.69054 9.05852C4.96541 8.99514 5.03941 8.9476 5.07641 8.83669C5.09756 8.76275 5.12399 8.7469 5.16627 8.78916C5.16843 8.79132 5.17053 8.7934 5.17256 8.79541C5.2301 8.85239 5.23109 8.85337 4.9707 9.02683C4.56368 9.30147 3.85538 9.10605 4.15667 8.805C4.24125 8.7205 4.30996 8.72578 4.27296 8.81556ZM6.18116 8.88423C6.31331 9.03211 6.32916 9.05852 6.38731 9.33844C6.41374 9.44408 6.47717 9.51274 6.59874 9.56027C6.7256 9.61309 6.83132 9.724 6.93704 9.91414C7.0269 10.0673 7.1749 10.2627 7.26476 10.3525C7.57663 10.643 7.6612 10.9441 7.49206 11.1289C7.37048 11.2662 7.32819 11.2504 7.30705 11.0497C7.29648 10.9176 7.26476 10.8754 7.16962 10.8648C7.01633 10.8437 6.67275 10.9757 6.37674 11.1764C6.10716 11.356 6.02787 11.3666 5.80058 11.224C5.62628 11.1237 5.62614 11.1131 5.62087 10.7126L5.62086 10.7117C5.62086 10.4846 5.61557 9.96167 5.61029 9.54443C5.605 9.08493 5.62086 8.78388 5.65257 8.77331C5.82172 8.69937 6.0543 8.75219 6.18116 8.88423ZM7.60834 13.7856C7.60834 13.9915 7.59777 14.0232 7.49734 14.0232C7.4392 14.0232 7.31234 14.0496 7.21719 14.0813C7.06919 14.1341 7.03218 14.1289 6.9159 14.018C6.76789 13.8753 6.75203 13.812 6.88418 13.812C6.93175 13.812 7.06919 13.7539 7.18548 13.6799C7.30176 13.6113 7.44448 13.5479 7.50263 13.5479C7.59249 13.5479 7.60834 13.5849 7.60834 13.7856Z" fill="black" stroke="black" stroke-width="0.2" stroke-linejoin="round"/>
</svg>
