<svg width="380" height="512" viewBox="0 0 380 512" fill="none" xmlns="http://www.w3.org/2000/svg">
<path d="M176.303 17.487C172.722 18.6253 165.724 21.5525 160.842 23.8291C148.798 29.1955 128.78 34.7245 120.805 34.7245C112.831 34.7245 98.5086 42.8554 86.7907 54.0761C82.3964 58.3041 74.259 65.1341 68.8882 69.1995C59.7743 76.1921 38.1287 98.3082 34.8737 104.162C34.0599 105.626 31.6187 113.432 29.503 121.563C26.0852 134.409 25.7597 138.475 26.7362 152.623C27.55 166.12 27.2245 170.185 24.946 175.389C23.3185 179.129 22.1792 186.447 22.0165 192.464C21.8537 201.408 22.8302 205.148 27.8755 216.369C31.1304 223.687 33.8972 230.517 33.8972 231.818C33.8972 232.956 35.8502 237.997 38.2914 242.876C40.7326 247.754 42.8484 253.934 43.1739 256.698C43.8249 262.878 48.2191 276.863 50.9858 281.091C52.2878 283.042 53.2643 292.799 53.9153 305.484C54.7291 328.25 57.3331 340.609 64.494 355.082C81.2572 388.744 93.7889 411.836 99.3223 418.666C102.74 423.056 105.507 427.284 105.507 428.26C105.507 432.488 111.203 440.456 121.619 450.701C127.641 456.718 134.802 464.849 137.406 468.915C140.01 472.817 144.729 478.021 147.984 480.298C151.239 482.575 156.61 486.477 159.865 489.079C173.048 499.324 209.178 498.023 234.567 486.315C251.167 478.509 265.489 462.898 293.482 421.755C307.641 400.94 312.198 391.834 321.312 365.652C325.544 353.131 327.497 345 327.497 338.332C327.659 331.177 328.148 329.063 330.101 329.063C333.193 329.063 335.309 330.689 337.587 334.755C341.819 342.56 349.305 335.893 347.515 325.973C347.027 323.859 348.166 319.143 349.793 315.403C351.584 311.338 352.885 304.996 352.885 298.979C352.885 293.612 354.025 283.042 355.489 275.399C358.419 259.463 358.907 224.662 356.303 218.158C355.164 215.068 355.164 211.002 356.14 205.148C357.768 197.017 356.14 184.496 351.421 168.722C350.607 165.957 349.468 158.965 348.817 153.273C348.003 145.467 345.887 139.451 340.354 129.043C336.285 121.563 331.565 110.179 329.775 103.837C325.055 86.2744 324.079 84.6483 314.639 78.6314C305.037 72.6145 295.923 64.4836 280.625 48.0592C265.164 31.4722 261.258 29.5207 229.196 22.6908C223.337 21.3898 215.688 19.601 212.27 18.788C200.715 15.6982 183.301 15.0477 176.303 17.487ZM220.245 24.1544C226.592 25.6179 235.381 27.8946 239.938 29.1955C244.495 30.4965 249.54 31.4722 251.33 31.4722C257.026 31.6348 266.14 38.6274 281.439 54.8892C289.902 63.6705 302.271 74.8912 309.106 79.6071L321.475 88.2258L325.055 102.211C327.171 109.854 330.752 119.611 333.03 123.839C342.795 141.727 344.585 146.28 344.748 153.761C344.748 157.826 346.213 165.957 348.003 171.649C349.793 177.178 351.746 187.423 352.234 194.09L353.374 206.287L346.05 199.294C336.611 190.187 333.03 190.35 328.961 200.107C327.171 204.498 325.218 210.027 324.567 212.466C323.916 215.068 320.498 220.272 317.081 224.012C311.059 230.517 310.571 231.818 310.571 240.274C310.571 245.315 309.92 249.38 309.106 249.38C308.292 249.38 305.525 249.868 302.759 250.356C297.876 251.332 297.876 251.332 295.435 240.599C292.343 226.776 286.321 216.857 273.627 204.01C267.93 198.318 262.56 192.301 261.746 190.675C260.769 189.049 260.118 183.195 260.118 177.503C260.118 166.608 254.26 147.907 246.936 135.71C241.891 127.417 230.01 117.66 224.965 117.66C220.082 117.66 220.082 118.473 225.127 125.14C227.406 128.067 229.196 130.832 229.196 131.157C229.196 131.645 225.941 130.994 222.035 129.856C218.129 128.718 212.596 127.417 209.504 127.092C204.296 126.604 203.97 126.929 203.97 131.32C203.97 135.06 202.994 136.361 197.948 138.312C192.252 140.589 191.438 140.426 171.095 132.458C148.961 123.839 131.872 118.635 120.48 117.009C113.482 116.034 109.087 117.334 103.554 122.213C101.926 123.514 97.3693 124.652 93.3006 124.815C86.1397 124.978 85.9769 124.815 89.3946 122.538C91.3476 121.237 95.2536 119.286 97.8576 118.31C100.624 117.334 103.228 115.708 103.554 114.733C105.181 109.691 93.9516 114.895 73.4452 128.555C51.3113 143.191 47.0799 146.768 45.9406 151.484C45.2896 153.924 43.9876 157.339 42.8484 159.127C39.9189 164.006 32.7579 190.187 31.4559 201.083C30.4794 208.075 29.8285 210.189 28.3637 208.726C25.597 205.961 26.4107 183.195 29.503 172.95C31.9442 165.307 32.1069 162.38 30.4794 152.948C28.5265 141.402 29.3402 136.361 35.6874 114.407C38.2914 105.463 40.2444 102.374 48.5446 94.0801C53.9153 88.8763 58.3096 83.9978 58.3096 83.3473C58.3096 82.6968 62.2155 79.2819 66.7725 75.8669C71.4922 72.4519 79.9552 65.6219 85.4887 60.5808C101.275 46.433 111.529 40.2535 121.782 38.9526C135.127 37.1638 150.588 32.6105 165.073 25.9431C177.442 20.2515 178.418 20.0889 193.391 20.7394C201.854 21.0646 214.06 22.6908 220.245 24.1544ZM138.219 124.652C143.265 126.116 156.61 130.994 168.002 135.548C179.232 139.938 190.136 143.679 192.252 143.679C194.205 143.679 199.088 142.215 202.994 140.426C208.69 137.824 209.829 136.523 209.178 133.922C208.202 130.019 209.829 129.856 220.408 133.108C231.963 136.523 234.567 136.361 233.102 131.807C232.614 129.856 230.986 126.929 229.522 125.303C224.639 119.774 230.335 122.701 236.032 128.555C246.936 139.938 254.911 159.94 256.701 180.105L258.003 194.578L267.442 203.034L276.882 211.328L271.185 210.677C267.279 210.189 263.211 211.328 258.328 213.93C251.656 217.507 249.703 217.67 226.104 217.182C212.27 217.019 196.809 217.67 191.927 218.645C186.881 219.621 176.954 220.597 169.793 220.597C156.285 220.922 144.892 224.825 129.594 234.257C119.503 240.436 122.27 247.429 133.825 245.315C136.592 244.664 141.149 245.315 144.241 246.616C151.728 249.706 156.285 248.405 164.422 241.249C173.048 233.769 177.279 231.492 182.487 231.492C184.766 231.492 190.299 229.541 195.019 227.102C205.272 221.898 221.059 221.41 226.429 226.126C233.102 232.305 237.985 246.128 234.241 248.567C233.265 249.055 226.918 246.453 219.919 242.713C207.225 236.046 207.225 236.046 193.717 237.021C179.883 237.997 172.722 240.599 166.212 246.616C161.818 250.519 161.493 253.934 165.073 256.535C167.189 258.162 167.351 259.137 165.561 262.878C163.771 266.78 163.934 267.594 166.7 269.708C173.373 274.749 186.719 276.7 195.995 273.936C198.599 273.123 204.784 271.659 209.666 270.521C214.549 269.382 220.733 266.78 223.174 264.666C225.778 262.552 228.871 260.764 230.173 260.764C233.753 260.764 238.961 250.844 238.961 244.014C238.961 237.509 235.706 229.704 230.824 224.175C227.894 220.922 227.894 220.922 241.077 220.922C251.656 220.76 255.887 220.109 261.258 217.182C265.001 215.231 269.232 213.604 270.697 213.604C274.44 213.604 280.95 221.247 286.321 231.98C291.692 242.55 293.808 250.519 296.086 269.87C297.551 281.253 297.225 284.831 294.459 296.214C291.855 306.134 291.041 314.265 291.041 330.201C291.204 349.39 293.808 371.506 296.574 374.108C297.225 374.759 300.806 374.108 304.549 372.807C309.92 370.856 312.524 368.417 316.918 361.424C319.847 356.546 321.8 354.106 321.149 355.895C320.336 357.684 317.732 365.002 315.128 371.994C312.524 378.987 307.478 390.37 303.898 397.2C295.11 414.112 271.023 447.286 255.724 463.873C245.471 475.094 240.914 478.509 231.637 482.9C218.292 489.079 205.109 491.681 187.532 491.844C172.885 492.006 167.514 490.38 159.54 483.388C156.447 480.623 152.216 477.696 150.263 476.72C145.055 474.444 135.778 461.272 138.382 460.296C140.01 459.808 139.521 457.857 137.08 452.978L133.5 446.311L138.057 449.563C143.916 453.954 148.473 453.141 149.124 447.612C149.449 444.197 148.147 442.245 143.102 438.017C136.755 433.139 134.639 429.886 137.731 429.886C140.335 429.886 159.377 448.262 157.912 449.238C156.447 450.214 152.704 456.556 152.704 458.182C152.704 460.621 156.936 458.67 162.632 453.466C170.932 445.985 175.163 445.172 184.44 449.238C193.554 453.303 195.995 453.466 197.297 450.214C198.925 445.985 196.809 443.709 189.485 441.432C184.603 439.969 181.999 438.342 181.348 435.903C180.371 432.326 181.673 425.333 183.626 422.568C185.579 419.804 186.719 413.624 185.254 412.811C184.603 412.324 181.999 414.6 179.72 417.69C177.279 420.78 174.187 423.382 172.885 423.382C171.583 423.382 167.026 425.17 162.795 427.447C153.03 432.651 147.822 432.651 141.963 427.122L137.243 422.731L144.567 420.617C148.635 419.316 153.192 418.666 154.82 419.154C158.075 419.967 171.42 415.901 176.303 412.486C178.093 411.348 181.836 410.372 184.766 410.372C187.858 410.372 192.903 408.746 196.321 406.632C199.576 404.518 204.784 401.916 207.713 400.778C213.247 398.501 214.549 395.086 210.48 393.46C207.062 392.159 198.437 394.11 191.764 397.688C187.37 399.965 184.115 400.452 177.93 399.639C171.095 398.826 168.979 399.314 165.398 402.079C162.144 404.68 158.889 405.494 151.565 405.494C143.753 405.494 140.823 406.307 136.266 409.722C129.594 414.763 125.037 417.365 125.037 416.064C125.037 415.576 127.803 412.161 131.384 408.258C136.266 403.054 138.219 398.989 140.01 390.858C142.451 379.475 145.055 377.686 145.869 386.63C146.52 394.11 149.775 396.875 155.145 394.436C158.563 392.809 158.889 391.996 157.587 388.581C155.634 383.215 149.449 376.222 146.682 376.222C145.543 376.222 142.939 372.645 140.823 368.417L136.917 360.448L141.963 357.196C150.751 351.342 161.004 346.626 163.446 347.602C166.538 348.74 166.375 354.432 163.283 355.732C161.981 356.22 158.726 356.22 156.122 355.732C150.426 354.594 148.473 357.033 152.379 360.448C154.82 362.725 156.285 362.725 164.585 360.774C169.955 359.473 175.489 357.359 177.116 355.895C184.44 349.228 181.999 337.682 170.769 325.973C167.189 322.233 162.144 315.566 159.702 311.013C156.61 305.484 153.518 302.394 150.1 301.093C145.869 299.629 144.729 298.166 143.916 293.125C143.265 289.547 140.823 284.343 137.894 281.091C133.5 276.212 131.872 275.399 125.525 275.399C121.619 275.399 116.899 276.212 115.272 277.025C112.505 278.489 112.017 277.838 111.203 271.334C110.552 267.431 107.948 260.926 105.507 256.861C101.764 251.169 99.1596 249.055 91.8359 246.291C86.7907 244.502 80.9317 241.737 78.8159 240.436C76.7002 238.973 71.8177 237.347 67.9118 236.696C63.0293 235.72 60.9135 234.582 61.0763 233.118C61.239 231.818 62.541 223.361 64.0058 214.417C71.4922 167.096 71.9805 157.013 67.5863 152.135C63.3548 147.581 65.3078 139.938 71.3295 135.548C77.8394 130.994 91.8359 126.929 97.3693 128.23C100.787 129.043 102.903 128.23 106.483 124.978C110.552 121.4 112.342 120.912 120.154 121.4C125.037 121.725 133.174 123.189 138.219 124.652ZM61.89 144.654C61.4018 147.094 62.541 151.647 64.494 155.55C68.2373 163.03 68.0745 164.331 60.0998 215.068C58.3096 226.126 57.3331 236.208 57.8213 237.347C58.3096 238.81 57.4958 239.623 55.7056 239.623C53.9153 239.623 51.1486 240.111 49.3584 240.599C46.5916 241.249 44.9641 239.135 39.1052 227.589L32.1069 213.767L34.0599 203.522C36.8267 189.049 42.8484 168.071 45.9406 162.38C47.4054 159.615 48.5446 156.2 48.5446 154.574C48.5446 151.972 59.286 140.426 61.7273 140.426C62.2155 140.426 62.3783 142.378 61.89 144.654ZM345.074 205.148C355.164 216.206 357.442 241.087 351.421 276.538C349.793 286.62 348.817 296.54 349.142 298.654C350.282 304.67 346.864 315.078 342.144 319.469L337.913 323.371L338.564 319.469C338.726 317.355 338.238 315.241 337.099 314.915C334.332 313.94 332.705 320.607 335.146 323.534C338.075 327.112 335.634 328.25 331.24 325.323C328.148 323.371 327.008 320.77 326.195 314.102C325.544 309.386 323.428 299.304 321.149 291.661C318.708 282.717 316.918 271.171 316.267 258.812C315.29 238.322 315.941 235.883 326.195 220.109C328.31 217.019 330.426 211.816 330.914 208.726C332.705 198.318 337.587 197.017 345.074 205.148ZM190.462 224.988C187.532 226.776 183.464 228.24 181.185 228.24C175.489 228.24 170.281 230.517 164.747 235.72C155.634 244.177 151.89 245.477 145.218 242.388C141.312 240.436 137.568 239.948 133.174 240.599C129.594 241.249 126.664 241.087 126.664 240.599C126.664 239.948 133.825 236.046 142.614 231.818C157.587 224.662 159.214 224.337 172.559 224.175C180.371 224.175 187.207 223.524 187.858 222.874C188.509 222.223 190.625 221.735 192.415 221.735C195.182 221.735 194.856 222.386 190.462 224.988ZM61.239 246.453C76.212 245.64 94.1144 249.055 94.1144 252.795C94.1144 253.934 92.9751 254.096 91.3476 253.446C89.7201 252.958 85.0004 251.982 80.7689 251.494C74.0962 250.681 72.1432 251.169 65.4705 255.722C61.239 258.487 57.1703 260.764 56.3566 260.764C55.7056 260.764 55.0546 258.162 55.0546 254.909C55.0546 250.356 54.5663 249.218 52.2878 249.706C49.8466 250.193 49.3584 251.82 49.6838 259.137C50.0093 266.13 49.8466 267.268 48.5446 264.341C47.7309 262.39 46.7544 258.162 46.4289 255.235C46.1034 252.307 44.6386 248.079 43.1739 245.965C39.2679 240.599 39.9189 237.834 43.6621 243.038C46.7544 247.266 47.2426 247.266 61.239 246.453ZM71.3295 241.249C73.1197 242.388 71.4922 242.876 65.6333 242.876C59.7743 242.876 58.1468 242.388 59.937 241.249C61.239 240.436 63.843 239.623 65.6333 239.623C67.4235 239.623 70.0275 240.436 71.3295 241.249ZM218.617 246.453C226.267 250.193 232.451 253.934 232.451 254.747C232.451 257.836 227.243 257.674 224.965 254.421C221.547 249.706 214.223 246.128 204.296 244.502C195.67 243.201 189.16 244.664 173.536 251.494C170.118 253.121 167.189 253.608 166.538 252.633C165.236 250.519 179.883 242.388 187.532 241.087C200.878 238.973 204.621 239.623 218.617 246.453ZM206.411 251.006C206.411 255.072 202.668 262.715 199.413 265.479C197.46 266.943 195.833 265.967 190.299 259.788C181.999 250.193 183.301 248.405 199.576 247.917C205.435 247.754 206.411 248.242 206.411 251.006ZM218.943 263.04C218.455 264.341 206.086 268.732 202.831 268.894C202.18 268.894 203.482 266.293 205.598 263.04C207.876 259.788 209.666 255.56 209.666 253.608C209.829 250.681 210.317 250.844 214.549 255.885C217.153 258.975 219.106 262.227 218.943 263.04ZM312.849 266.618C313.5 274.261 315.453 285.156 317.243 290.848C321.8 305.809 324.893 325.648 323.428 330.527C322.777 332.803 321.312 338.983 320.336 344.024C318.383 354.269 311.222 365.49 304.712 368.417C299.341 370.856 298.365 369.392 296.086 353.944C293.319 335.08 293.808 316.054 297.876 298.816C300.969 285.481 301.131 281.579 299.829 268.894L298.365 254.421L303.247 253.771C305.851 253.446 308.943 252.958 309.92 252.958C311.059 252.795 312.198 257.836 312.849 266.618ZM87.6044 256.535C95.4164 258.65 96.7184 258.65 98.3458 256.535C99.9733 254.584 100.787 255.397 103.554 261.089C109.413 273.773 112.668 298.166 112.18 324.185C111.691 351.667 113.482 359.147 121.293 360.936C135.29 364.026 135.127 364.026 137.243 370.531C139.196 375.897 139.196 378.336 136.755 388.256C134.639 397.525 132.686 401.428 127.152 407.77C119.991 415.739 118.201 421.755 122.758 421.755C124.06 421.755 129.594 418.828 134.802 415.251C143.265 409.559 145.543 408.746 153.843 408.746C160.028 408.746 164.747 407.77 167.026 406.144C169.304 404.518 175.001 403.38 181.185 403.054C187.37 402.729 193.066 401.591 195.182 399.965C197.297 398.501 200.064 397.363 201.529 397.363C202.831 397.363 200.552 399.639 196.321 402.241C191.927 405.006 186.393 407.12 183.789 407.12C181.185 407.12 175.163 408.909 170.281 411.185C165.561 413.462 159.051 415.251 155.959 415.251C152.867 415.251 146.682 416.226 142.125 417.365L133.988 419.479L133.5 426.959C133.011 434.114 133.5 434.765 139.684 439.806C143.265 442.733 146.194 445.985 146.194 447.286C146.194 450.214 144.078 449.888 139.521 446.311C134.313 442.408 128.292 440.456 128.292 442.896C128.292 444.034 129.594 446.799 131.221 449.075C136.429 456.556 136.755 457.531 134.151 456.556C132.849 456.068 126.664 448.913 120.317 440.619L108.925 425.658L109.901 411.836C110.715 398.989 110.389 396.875 104.693 379.963C101.438 369.88 99.1596 361.099 99.6478 360.286C100.787 358.334 93.6261 348.089 88.5809 344.837C84.8377 342.235 84.5122 341.097 84.0239 327.925L83.5357 313.614H78.6532C67.2608 313.452 63.5175 309.386 69.702 303.857C72.7942 301.093 72.957 301.255 77.8394 305.321C80.7689 307.598 84.0239 309.549 85.3259 309.549C88.9064 309.549 99.3223 303.857 102.903 299.954C106.321 296.214 105.344 291.661 101.113 291.661C98.8341 291.661 98.9968 290.848 102.74 287.596C105.181 285.319 107.134 282.554 107.134 281.741C107.134 280.766 104.693 277.513 101.601 274.423C94.9281 267.756 88.7436 267.268 76.0492 272.147L67.5863 275.237L62.8665 271.334C60.2625 269.057 56.8448 267.268 55.3801 267.268C53.9153 267.106 55.3801 265.805 58.6351 264.179C62.0528 262.39 66.7725 259.625 69.2137 257.674C74.7472 253.608 76.212 253.608 87.6044 256.535ZM181.999 255.885C181.999 256.698 184.928 260.438 188.509 264.016L195.019 270.521L190.787 271.496C185.905 272.797 170.281 268.894 169.467 266.293C168.653 263.853 176.791 254.259 179.72 254.259C181.022 254.259 181.999 254.909 181.999 255.885ZM59.286 273.936C60.7508 275.562 63.0293 277.025 64.1685 277.025C65.796 277.025 66.1215 278.489 65.3078 282.067C64.494 285.969 65.3078 287.921 69.051 291.824L73.7707 296.865L87.6044 295.726L101.438 294.751L96.0674 299.792C89.8829 305.484 83.0474 306.134 78.6532 301.418C77.0257 299.629 74.5845 298.166 73.2825 298.166C69.3765 298.166 63.192 304.833 63.192 308.898C63.192 313.289 70.1902 317.68 77.1885 317.68H81.5827L80.6062 328.575C79.6297 341.259 81.0944 346.463 86.4652 348.415C91.0221 350.203 95.7419 356.871 95.7419 361.587C95.7419 363.538 98.3458 372.807 101.438 382.239C106.972 398.826 108.111 408.258 105.67 416.877C104.693 420.617 104.205 420.292 98.5086 411.185C95.0909 405.819 85.4887 387.443 77.0257 370.531C59.6115 335.568 56.3566 324.185 56.8448 298.979C57.1703 286.782 56.6821 283.205 53.7526 277.513C51.7996 273.773 50.1721 270.358 50.1721 269.87C50.1721 268.244 56.6821 271.171 59.286 273.936ZM97.2066 275.887C99.3223 278.652 95.9046 282.392 88.7436 284.994C83.5357 286.945 81.9082 286.457 79.4669 281.904C78.0022 279.302 78.4904 278.326 82.2337 276.375C87.9299 273.285 94.7654 273.123 97.2066 275.887ZM75.2355 280.928C74.7472 282.067 76.212 284.668 78.4904 286.457C81.7454 289.059 83.8612 289.384 88.0926 288.409C96.5556 286.457 98.8341 284.994 99.9733 281.579C100.624 279.302 101.438 278.814 102.74 280.115C104.693 282.067 105.019 281.904 96.7184 287.433C84.1867 295.889 62.3783 289.872 71.655 280.603C74.259 278.001 76.3747 278.164 75.2355 280.928ZM133.988 283.042C138.057 287.596 138.545 288.409 140.335 297.027C141.149 300.28 143.102 302.394 146.845 303.857C150.751 305.484 154.006 308.898 157.261 314.753C160.028 319.469 164.585 325.486 167.351 328.25C176.954 337.194 179.558 346.463 174.35 352.155C170.606 356.383 169.304 355.895 168.653 349.716C168.328 345.65 167.351 344.349 164.422 344.024C159.702 343.374 149.124 347.439 140.01 353.618C131.709 359.147 129.268 359.473 122.27 355.082C116.899 351.992 116.899 351.667 116.736 339.308C116.736 332.315 116.574 316.216 116.411 303.369C116.248 289.222 116.736 279.952 117.713 279.627C122.921 277.351 130.082 278.977 133.988 283.042ZM344.26 331.34C343.609 332.803 342.47 333.942 341.493 333.942C339.703 333.942 339.215 328.575 341.005 326.786C342.795 325.16 345.236 328.575 344.26 331.34ZM177.93 433.952C177.93 440.294 177.605 441.27 174.512 441.27C172.722 441.27 168.816 442.083 165.887 443.058C161.33 444.685 160.191 444.522 156.61 441.107C152.053 436.716 151.565 434.765 155.634 434.765C157.098 434.765 161.33 432.976 164.91 430.699C168.491 428.585 172.885 426.634 174.675 426.634C177.442 426.634 177.93 427.772 177.93 433.952Z" fill="black"/>
</svg>
